<svg width="35" height="35" viewBox="0 0 35 35" fill="none" xmlns="http://www.w3.org/2000/svg">
<circle cx="17.5" cy="17.5" r="17.5" fill="white"/>
<path d="M27.6316 19.4703C27.6316 19.9346 27.2516 20.3146 26.7873 20.3146H20.3143V26.7875C20.3143 27.2519 19.9344 27.6318 19.47 27.6318H15.53C15.0656 27.6318 14.6857 27.2519 14.6857 26.7875V20.3146H8.21271C7.74834 20.3146 7.36841 19.9346 7.36841 19.4703V15.5302C7.36841 15.0658 7.74834 14.6859 8.21271 14.6859H14.6857V8.21295C14.6857 7.74859 15.0656 7.36865 15.53 7.36865H19.47C19.9344 7.36865 20.3143 7.74859 20.3143 8.21295V14.6859H26.7873C27.2516 14.6859 27.6316 15.0658 27.6316 15.5302V19.4703Z" fill="black"/>
</svg>
