<svg width="70" height="70" viewBox="0 0 70 70" fill="none" xmlns="http://www.w3.org/2000/svg">
<rect width="70" height="70" rx="4" fill="#00026A"/>
<path d="M52.9138 18.9189H52.2634V20.6926C52.2634 21.2779 51.8245 21.7568 51.2879 21.7568H48.0362C47.4997 21.7568 47.0607 21.2779 47.0607 20.6926V18.9189H21.0472V20.6926C21.0472 21.2779 20.6082 21.7568 20.0717 21.7568H16.82C16.2835 21.7568 15.8445 21.2779 15.8445 20.6926V18.9189H15.1942C14.113 18.9189 13.2432 19.8678 13.2432 21.0473V50.8446C13.2432 52.0241 14.113 52.973 15.1942 52.973H15.8445V51.1994C15.8445 50.6141 16.2835 50.1352 16.82 50.1352H20.0717C20.6082 50.1352 21.0472 50.6141 21.0472 51.1994V52.973H47.0607V51.1994C47.0607 50.6141 47.4997 50.1352 48.0362 50.1352H51.2879C51.8245 50.1352 52.2634 50.6141 52.2634 51.1994V52.973H52.9138C53.995 52.973 54.8648 52.0241 54.8648 50.8446V21.0473C54.8648 19.8678 53.995 18.9189 52.9138 18.9189ZM21.0472 46.2331C21.0472 46.8184 20.6082 47.2973 20.0717 47.2973H16.82C16.2835 47.2973 15.8445 46.8184 15.8445 46.2331V42.6858C15.8445 42.1005 16.2835 41.6217 16.82 41.6217H20.0717C20.6082 41.6217 21.0472 42.1005 21.0472 42.6858V46.2331ZM21.0472 37.7196C21.0472 38.3049 20.6082 38.7838 20.0717 38.7838H16.82C16.2835 38.7838 15.8445 38.3049 15.8445 37.7196V34.1723C15.8445 33.587 16.2835 33.1081 16.82 33.1081H20.0717C20.6082 33.1081 21.0472 33.587 21.0472 34.1723V37.7196ZM21.0472 29.2061C21.0472 29.7914 20.6082 30.2703 20.0717 30.2703H16.82C16.2835 30.2703 15.8445 29.7914 15.8445 29.2061V25.6588C15.8445 25.0735 16.2835 24.5946 16.82 24.5946H20.0717C20.6082 24.5946 21.0472 25.0735 21.0472 25.6588V29.2061ZM43.1587 47.6521C43.1587 48.2374 42.7197 48.7162 42.1832 48.7162H25.9248C25.3882 48.7162 24.9492 48.2374 24.9492 47.6521V39.1385C24.9492 38.5532 25.3882 38.0744 25.9248 38.0744H42.1832C42.7197 38.0744 43.1587 38.5532 43.1587 39.1385V47.6521ZM43.1587 32.7534C43.1587 33.3387 42.7197 33.8176 42.1832 33.8176H25.9248C25.3882 33.8176 24.9492 33.3387 24.9492 32.7534V24.2399C24.9492 23.6546 25.3882 23.1757 25.9248 23.1757H42.1832C42.7197 23.1757 43.1587 23.6546 43.1587 24.2399V32.7534ZM52.2634 46.2331C52.2634 46.8184 51.8245 47.2973 51.2879 47.2973H48.0362C47.4997 47.2973 47.0607 46.8184 47.0607 46.2331V42.6858C47.0607 42.1005 47.4997 41.6217 48.0362 41.6217H51.2879C51.8245 41.6217 52.2634 42.1005 52.2634 42.6858V46.2331ZM52.2634 37.7196C52.2634 38.3049 51.8245 38.7838 51.2879 38.7838H48.0362C47.4997 38.7838 47.0607 38.3049 47.0607 37.7196V34.1723C47.0607 33.587 47.4997 33.1081 48.0362 33.1081H51.2879C51.8245 33.1081 52.2634 33.587 52.2634 34.1723V37.7196ZM52.2634 29.2061C52.2634 29.7914 51.8245 30.2703 51.2879 30.2703H48.0362C47.4997 30.2703 47.0607 29.7914 47.0607 29.2061V25.6588C47.0607 25.0735 47.4997 24.5946 48.0362 24.5946H51.2879C51.8245 24.5946 52.2634 25.0735 52.2634 25.6588V29.2061Z" fill="white"/>
</svg>
