<svg width="37" height="43" viewBox="0 0 37 43" fill="none" xmlns="http://www.w3.org/2000/svg">
<rect width="37" height="37" rx="4" fill="#F2F5F9"/>
<path d="M27.9688 10H27.625V10.9375C27.625 11.2469 27.393 11.5 27.1094 11.5H25.3906C25.107 11.5 24.875 11.2469 24.875 10.9375V10H11.125V10.9375C11.125 11.2469 10.893 11.5 10.6094 11.5H8.89062C8.60703 11.5 8.375 11.2469 8.375 10.9375V10H8.03125C7.45977 10 7 10.5016 7 11.125V26.875C7 27.4984 7.45977 28 8.03125 28H8.375V27.0625C8.375 26.7531 8.60703 26.5 8.89062 26.5H10.6094C10.893 26.5 11.125 26.7531 11.125 27.0625V28H24.875V27.0625C24.875 26.7531 25.107 26.5 25.3906 26.5H27.1094C27.393 26.5 27.625 26.7531 27.625 27.0625V28H27.9688C28.5402 28 29 27.4984 29 26.875V11.125C29 10.5016 28.5402 10 27.9688 10ZM11.125 24.4375C11.125 24.7469 10.893 25 10.6094 25H8.89062C8.60703 25 8.375 24.7469 8.375 24.4375V22.5625C8.375 22.2531 8.60703 22 8.89062 22H10.6094C10.893 22 11.125 22.2531 11.125 22.5625V24.4375ZM11.125 19.9375C11.125 20.2469 10.893 20.5 10.6094 20.5H8.89062C8.60703 20.5 8.375 20.2469 8.375 19.9375V18.0625C8.375 17.7531 8.60703 17.5 8.89062 17.5H10.6094C10.893 17.5 11.125 17.7531 11.125 18.0625V19.9375ZM11.125 15.4375C11.125 15.7469 10.893 16 10.6094 16H8.89062C8.60703 16 8.375 15.7469 8.375 15.4375V13.5625C8.375 13.2531 8.60703 13 8.89062 13H10.6094C10.893 13 11.125 13.2531 11.125 13.5625V15.4375ZM22.8125 25.1875C22.8125 25.4969 22.5805 25.75 22.2969 25.75H13.7031C13.4195 25.75 13.1875 25.4969 13.1875 25.1875V20.6875C13.1875 20.3781 13.4195 20.125 13.7031 20.125H22.2969C22.5805 20.125 22.8125 20.3781 22.8125 20.6875V25.1875ZM22.8125 17.3125C22.8125 17.6219 22.5805 17.875 22.2969 17.875H13.7031C13.4195 17.875 13.1875 17.6219 13.1875 17.3125V12.8125C13.1875 12.5031 13.4195 12.25 13.7031 12.25H22.2969C22.5805 12.25 22.8125 12.5031 22.8125 12.8125V17.3125ZM27.625 24.4375C27.625 24.7469 27.393 25 27.1094 25H25.3906C25.107 25 24.875 24.7469 24.875 24.4375V22.5625C24.875 22.2531 25.107 22 25.3906 22H27.1094C27.393 22 27.625 22.2531 27.625 22.5625V24.4375ZM27.625 19.9375C27.625 20.2469 27.393 20.5 27.1094 20.5H25.3906C25.107 20.5 24.875 20.2469 24.875 19.9375V18.0625C24.875 17.7531 25.107 17.5 25.3906 17.5H27.1094C27.393 17.5 27.625 17.7531 27.625 18.0625V19.9375ZM27.625 15.4375C27.625 15.7469 27.393 16 27.1094 16H25.3906C25.107 16 24.875 15.7469 24.875 15.4375V13.5625C24.875 13.2531 25.107 13 25.3906 13H27.1094C27.393 13 27.625 13.2531 27.625 13.5625V15.4375Z" fill="#B6C8DD"/>
</svg>
