<?xml version="1.0" encoding="utf-8"?>
<!-- Generator: Adobe Illustrator 23.0.1, SVG Export Plug-In . SVG Version: 6.00 Build 0)  -->
<svg version="1.1" id="Capa_1" xmlns="http://www.w3.org/2000/svg" xmlns:xlink="http://www.w3.org/1999/xlink" x="0px" y="0px"
	 viewBox="0 0 453 302" style="enable-background:new 0 0 453 302;" xml:space="preserve">
<style type="text/css">
	.st0{enable-background:new    ;}
	.st1{fill:#00006C;}
	.st2{fill:#00CAF1;}
	.st3{fill:url(#SVGID_1_);}
	.st4{fill:url(#SVGID_2_);}
	.st5{fill:url(#SVGID_3_);}
</style>
<g>
	<g>
		<g>
			<g class="st0">
				<path class="st1" d="M81.2,258c0,2.6-0.5,5-1.4,7.2c-0.9,2.2-2.2,4.2-3.8,5.8c-1.6,1.6-3.6,2.9-5.8,3.9
					c-2.2,0.9-4.7,1.4-7.3,1.4c-3.3,0-6.2-0.8-8.8-2.3c-2.6-1.5-4.3-3.4-5.3-5.6c0,0.6,0,1.2,0,1.7c0,0.6,0,1.2,0,1.8v20.6H44v-52.2
					h4.7c0,0.2,0,0.6,0,1.1c0,0.6,0,1.3,0,2c0,0.7,0,1.5,0,2.2c0,0.8,0,1.4,0,2c1.1-2.2,2.9-4.1,5.4-5.7c2.5-1.6,5.4-2.5,8.8-2.5
					c2.6,0,5.1,0.5,7.3,1.4c2.2,0.9,4.1,2.2,5.7,3.8c1.6,1.6,2.9,3.6,3.8,5.8C80.8,252.8,81.2,255.3,81.2,258z M76,258
					c0-1.9-0.3-3.7-1-5.4c-0.6-1.7-1.6-3.1-2.8-4.3c-1.2-1.2-2.6-2.2-4.3-2.9c-1.6-0.7-3.4-1.1-5.4-1.1c-1.9,0-3.7,0.4-5.4,1.1
					c-1.7,0.7-3.1,1.7-4.4,2.9c-1.2,1.2-2.2,2.6-2.9,4.3c-0.7,1.6-1.1,3.4-1.1,5.4c0,1.9,0.4,3.7,1.1,5.4c0.7,1.6,1.7,3.1,2.9,4.3
					c1.2,1.2,2.7,2.2,4.4,2.9c1.7,0.7,3.5,1.1,5.4,1.1c1.9,0,3.7-0.4,5.4-1.1c1.6-0.7,3.1-1.7,4.3-2.9c1.2-1.2,2.1-2.7,2.8-4.3
					C75.7,261.6,76,259.9,76,258z"/>
				<path class="st1" d="M95.8,275.6h-4.9v-67.6h4.9V275.6z"/>
				<path class="st1" d="M105.4,258.2c0-2.5,0.5-4.9,1.5-7.2c1-2.3,2.3-4.2,4-6c1.7-1.7,3.6-3,5.9-4c2.2-1,4.6-1.5,7.1-1.5
					c1.8,0,3.4,0.2,4.9,0.7c1.5,0.5,2.9,1.1,4.1,1.9c1.2,0.8,2.2,1.7,3,2.6c0.8,1,1.4,1.9,1.9,2.9l0.4-7.3h4.5v35.3h-4.9V272
					c0-0.6,0-1.3,0-1.9c0-0.6,0-1.1,0-1.7c-0.4,1-1,2-1.9,2.9c-0.8,0.9-1.8,1.8-3,2.5c-1.2,0.8-2.6,1.4-4.1,1.8
					c-1.5,0.4-3.2,0.7-5,0.7c-2.6,0-5.1-0.5-7.4-1.5c-2.3-1-4.2-2.3-5.8-3.9c-1.6-1.6-2.9-3.6-3.8-5.8
					C105.9,263,105.4,260.6,105.4,258.2z M110.2,257.9c0,1.9,0.4,3.7,1.1,5.4c0.7,1.6,1.7,3.1,2.9,4.3c1.2,1.2,2.7,2.2,4.4,2.9
					c1.7,0.7,3.5,1.1,5.4,1.1c1.9,0,3.7-0.4,5.4-1.1c1.7-0.7,3.1-1.7,4.4-2.9c1.2-1.2,2.2-2.7,2.9-4.3c0.7-1.6,1.1-3.4,1.1-5.4
					c0-1.9-0.4-3.6-1.1-5.3c-0.7-1.6-1.7-3.1-2.9-4.3c-1.2-1.2-2.7-2.2-4.4-2.9c-1.7-0.7-3.5-1.1-5.4-1.1c-1.9,0-3.7,0.4-5.4,1.1
					c-1.7,0.7-3.1,1.7-4.4,2.9c-1.2,1.2-2.2,2.6-2.9,4.3C110.6,254.2,110.2,256,110.2,257.9z"/>
				<path class="st1" d="M162.8,292.6h-5.1c0.8-1.6,1.5-3.1,2.1-4.5c0.6-1.4,1.2-2.8,1.8-4.2c0.6-1.4,1.2-2.9,1.9-4.5
					c0.7-1.6,1.5-3.3,2.3-5.2c-2.7-5.4-5.4-11-7.9-16.9c-2.6-5.8-5.2-11.5-7.9-17h5.2c1.8,3.5,3.3,6.7,4.6,9.5
					c1.3,2.8,2.5,5.4,3.5,7.7c1,2.3,2,4.5,2.8,6.5c0.8,2,1.6,3.9,2.5,5.8c0.8-1.9,1.6-3.8,2.4-5.8c0.8-2,1.7-4.2,2.7-6.5
					c1-2.3,2.2-4.9,3.5-7.7c1.3-2.8,2.8-6,4.6-9.5h5.2L162.8,292.6z"/>
			</g>
		</g>
		<g>
			<g class="st0">
				<path class="st2" d="M195.3,275.4v-63h36.1v5.6h-30.1v23.8h26.5v5.6h-26.5v28H195.3z"/>
				<path class="st2" d="M266.5,275.8h-4.1l-0.5-9.5c-1.2,2.9-3.1,5.3-5.6,7.1c-2.5,1.8-5.6,2.7-9.2,2.7c-3.5,0-6.2-1-8.2-2.9
					c-2-1.9-3.1-4.5-3.2-7.7v-25.5h4.9v23.8c0.1,2,0.8,3.7,2.1,5.1c1.3,1.4,3.2,2.2,5.8,2.3c1.8,0,3.5-0.3,5.2-0.9
					c1.6-0.6,3-1.5,4.2-2.6c1.2-1.1,2.1-2.4,2.8-3.9c0.7-1.5,1.1-3.2,1.1-5v-18.8h4.9V275.8z"/>
				<path class="st2" d="M278.6,240.1h4.1l0.4,9.1c1.3-2.9,3.2-5.3,5.7-7.1c2.5-1.8,5.6-2.7,9.1-2.7c3.5,0,6.2,1,8.2,2.9
					s3.1,4.5,3.2,7.7v25.5h-4.8v-23.8c-0.1-2-0.8-3.7-2.1-5.1c-1.3-1.4-3.2-2.2-5.8-2.3c-1.9,0-3.6,0.3-5.2,0.9
					c-1.6,0.6-3,1.5-4.2,2.6c-1.2,1.1-2.1,2.4-2.8,4c-0.7,1.5-1,3.2-1,5v18.7h-4.9V240.1z"/>
				<path class="st2" d="M321.1,240.1h4.1l0.4,9.1c1.3-2.9,3.2-5.3,5.7-7.1c2.5-1.8,5.6-2.7,9.1-2.7c3.5,0,6.2,1,8.2,2.9
					s3.1,4.5,3.2,7.7v25.5h-4.8v-23.8c-0.1-2-0.8-3.7-2.1-5.1c-1.3-1.4-3.2-2.2-5.8-2.3c-1.9,0-3.6,0.3-5.2,0.9
					c-1.6,0.6-3,1.5-4.2,2.6c-1.2,1.1-2.1,2.4-2.8,4c-0.7,1.5-1,3.2-1,5v18.7h-4.9V240.1z"/>
				<path class="st2" d="M392.8,271.2c-1.7,1.5-3.7,2.7-6,3.6c-2.3,0.9-4.7,1.3-7.1,1.3c-2.6,0-5-0.5-7.3-1.5
					c-2.3-1-4.2-2.3-5.9-3.9c-1.7-1.6-3-3.6-4-5.8c-1-2.2-1.5-4.6-1.5-7.1s0.5-4.9,1.5-7.2c1-2.3,2.3-4.2,4-5.9c1.7-1.7,3.6-3,5.9-4
					c2.2-1,4.6-1.5,7.1-1.5c3.9,0,7.2,1.2,10.1,3.5c2.9,2.4,5,5.3,6.3,9c-2,0.8-4.2,1.6-6.7,2.6c-2.4,1-4.9,2-7.5,3
					s-5.1,2.1-7.6,3.1c-2.5,1-4.9,2-7.1,2.9c1.1,2.4,2.7,4.4,4.9,5.8c2.2,1.5,4.7,2.2,7.5,2.2c1.9,0,3.7-0.3,5.4-1
					c1.7-0.6,3.1-1.5,4.3-2.6L392.8,271.2z M389.8,250.5c-1-2-2.4-3.6-4.2-4.7s-3.9-1.7-6.1-1.7c-1.9,0-3.6,0.4-5.3,1.1
					c-1.6,0.7-3.1,1.7-4.3,3s-2.2,2.7-2.9,4.3c-0.7,1.6-1.1,3.3-1.1,5.2c0,0.9,0.1,1.8,0.3,2.5c1.8-0.8,3.8-1.6,5.8-2.4
					c2.1-0.8,4.1-1.7,6.2-2.5c2.1-0.9,4.1-1.7,6.1-2.5C386.3,251.9,388.1,251.2,389.8,250.5z"/>
				<path class="st2" d="M408.9,275.4H404v-67.6h4.8V275.4z"/>
			</g>
		</g>
	</g>
	<g>
		<path class="st1" d="M158.6,159.8V24.7c0-11.7,12.3-19.2,22.7-14L318.7,78c11.5,5.8,11.4,22.3-0.1,28l-137.4,67.8
			C170.8,178.9,158.6,171.4,158.6,159.8z"/>
		
			<linearGradient id="SVGID_1_" gradientUnits="userSpaceOnUse" x1="163.8636" y1="132.2629" x2="184.0753" y2="155.3251" gradientTransform="matrix(1 0 0 -1 0 304)">
			<stop  offset="0.1135" style="stop-color:#00FFFF"/>
			<stop  offset="1" style="stop-color:#29ABE2"/>
		</linearGradient>
		<path class="st3" d="M168.9,145.7c-0.1,0-0.4,0.2-0.4,0.2c-7.7,2.9-11.8,11.5-9,19.4s11.3,12,19.2,9.4c0,0,0.3-0.1,0.4-0.1
			c8-2.8,12.2-11.5,9.3-19.5C185.6,147.1,176.8,142.9,168.9,145.7z"/>
		
			<linearGradient id="SVGID_2_" gradientUnits="userSpaceOnUse" x1="145.3374" y1="185.6067" x2="223.0767" y2="274.3094" gradientTransform="matrix(1 0 0 -1 0 304)">
			<stop  offset="0.1135" style="stop-color:#00FFFF"/>
			<stop  offset="1" style="stop-color:#29ABE2"/>
		</linearGradient>
		<path class="st4" d="M127.9,101.5L127.9,101.5c-3.7-7.6-0.6-16.8,7.1-20.5l85-41.5c7.6-3.7,16.8-0.6,20.5,7.1l0,0
			c3.7,7.6,0.6,16.8-7.1,20.5l-85.1,41.5C140.7,112.3,131.6,109.1,127.9,101.5z"/>
		
			<linearGradient id="SVGID_3_" gradientUnits="userSpaceOnUse" x1="154.5146" y1="158.8262" x2="204.0132" y2="215.3055" gradientTransform="matrix(1 0 0 -1 0 304)">
			<stop  offset="0.1135" style="stop-color:#00FFFF"/>
			<stop  offset="1" style="stop-color:#29ABE2"/>
		</linearGradient>
		<path class="st5" d="M143.8,134.2L143.8,134.2c-3.7-7.6-0.6-16.8,7.1-20.5l43.3-21.1c7.6-3.7,16.8-0.6,20.5,7.1l0,0
			c3.7,7.6,0.6,16.8-7.1,20.5l-43.3,21.1C156.7,144.9,147.5,141.8,143.8,134.2z"/>
	</g>
</g>
</svg>
