<?xml version="1.0" encoding="utf-8"?>
<!-- Generator: Adobe Illustrator 23.0.1, SVG Export Plug-In . SVG Version: 6.00 Build 0)  -->
<svg version="1.1" id="Capa_1" xmlns="http://www.w3.org/2000/svg" xmlns:xlink="http://www.w3.org/1999/xlink" x="0px" y="0px"
	 viewBox="0 0 830 208" style="enable-background:new 0 0 830 208;" xml:space="preserve">
<style type="text/css">
	.st0{fill:#FFFFFF;}
	.st1{fill:#00CAF1;}
	.st2{fill:#00006C;stroke:#FFFFFF;stroke-width:5.2707;stroke-miterlimit:10;}
	.st3{fill:url(#SVGID_1_);}
	.st4{fill:url(#SVGID_2_);}
	.st5{fill:url(#SVGID_3_);}
</style>
<g>
	<g>
		<g>
			<g>
				<path class="st0" d="M345.8,102.3c0,3.4-0.6,6.5-1.8,9.5c-1.2,2.9-2.9,5.5-5,7.6c-2.2,2.2-4.7,3.8-7.6,5.1
					c-2.9,1.2-6.1,1.8-9.6,1.8c-4.3,0-8.1-1-11.5-3c-3.3-2-5.7-4.5-7-7.4c0,0.8,0,1.5,0.1,2.3c0,0.7,0.1,1.5,0.1,2.4v27h-6.3V79.2
					h6.1c0,0.2,0,0.7,0.1,1.5c0,0.8,0.1,1.6,0.1,2.6c0,1,0,1.9,0.1,2.9c0,1,0.1,1.9,0.1,2.7c1.5-2.8,3.8-5.3,7-7.5
					c3.2-2.2,7.1-3.2,11.5-3.2c3.5,0,6.6,0.6,9.5,1.8c2.9,1.2,5.4,2.8,7.5,5c2.1,2.1,3.8,4.7,5,7.6
					C345.2,95.5,345.8,98.8,345.8,102.3z M339,102.3c0-2.5-0.4-4.9-1.3-7.1c-0.8-2.2-2.1-4.1-3.6-5.7c-1.6-1.6-3.4-2.8-5.6-3.7
					c-2.2-0.9-4.5-1.4-7-1.4s-4.9,0.5-7.1,1.4c-2.2,0.9-4.1,2.2-5.7,3.7c-1.6,1.6-2.9,3.4-3.8,5.6c-0.9,2.2-1.4,4.5-1.4,7
					s0.5,4.9,1.4,7c0.9,2.2,2.2,4,3.8,5.7c1.6,1.6,3.5,2.9,5.7,3.8c2.2,0.9,4.6,1.4,7.1,1.4s4.9-0.5,7-1.4c2.2-0.9,4-2.2,5.6-3.8
					c1.6-1.6,2.8-3.5,3.6-5.7C338.6,107.1,339,104.8,339,102.3z"/>
				<path class="st0" d="M364.8,125.4h-6.3V37h6.3V125.4z"/>
				<path class="st0" d="M377.4,102.5c0-3.3,0.6-6.4,1.9-9.4c1.3-3,3-5.6,5.2-7.8c2.2-2.2,4.7-4,7.7-5.2c2.9-1.3,6-1.9,9.3-1.9
					c2.3,0,4.5,0.3,6.5,0.9c2,0.6,3.8,1.4,5.4,2.5s2.9,2.2,4,3.5c1.1,1.3,1.9,2.5,2.4,3.7l0.5-9.6h5.9v46.1h-6.3v-4.7
					c0-0.8,0-1.7,0.1-2.4c0-0.8,0.1-1.5,0.1-2.2c-0.5,1.3-1.3,2.6-2.4,3.8c-1.1,1.2-2.4,2.3-4,3.3c-1.6,1-3.4,1.8-5.4,2.4
					s-4.2,0.9-6.6,0.9c-3.5,0-6.7-0.6-9.6-1.9c-3-1.3-5.5-3-7.6-5.1c-2.1-2.2-3.8-4.7-5-7.6C378,108.8,377.4,105.8,377.4,102.5z
					 M383.8,102.2c0,2.5,0.5,4.9,1.4,7c0.9,2.2,2.2,4,3.8,5.7c1.6,1.6,3.5,2.9,5.7,3.8s4.6,1.4,7.1,1.4s4.9-0.5,7.1-1.4
					s4.1-2.2,5.7-3.8c1.6-1.6,2.9-3.5,3.8-5.7c0.9-2.2,1.4-4.5,1.4-7c0-2.5-0.5-4.8-1.4-6.9c-0.9-2.2-2.2-4-3.8-5.7
					c-1.6-1.6-3.5-2.9-5.7-3.8s-4.6-1.4-7.1-1.4s-4.9,0.5-7.1,1.4s-4.1,2.2-5.7,3.7c-1.6,1.6-2.9,3.4-3.8,5.6
					C384.2,97.3,383.8,99.7,383.8,102.2z"/>
				<path class="st0" d="M452.5,147.5h-6.7c1-2.1,1.9-4,2.7-5.8c0.8-1.8,1.6-3.6,2.4-5.5c0.8-1.8,1.6-3.8,2.5-5.8
					c0.9-2,1.9-4.3,3.1-6.9c-3.5-7.1-7-14.4-10.4-22.1c-3.4-7.7-6.8-15.1-10.4-22.2h6.8c2.3,4.6,4.3,8.8,6,12.5
					c1.7,3.7,3.2,7.1,4.6,10.1c1.3,3,2.6,5.9,3.6,8.5c1.1,2.6,2.2,5.2,3.2,7.6c1.1-2.5,2.1-5,3.2-7.6c1-2.6,2.2-5.4,3.6-8.5
					c1.3-3,2.9-6.4,4.6-10.1c1.7-3.7,3.7-7.8,6-12.5h6.8L452.5,147.5z"/>
			</g>
		</g>
		<g>
			<g>
				<path class="st1" d="M495,125.1V42.7h47.2V50h-39.3v31.1h34.7v7.4h-34.7v36.6H495z"/>
				<path class="st1" d="M588.1,125.7h-5.3l-0.7-12.5c-1.6,3.8-4.1,7-7.4,9.3c-3.3,2.4-7.3,3.6-12,3.6c-4.5,0-8.1-1.3-10.8-3.8
					c-2.7-2.5-4.1-5.9-4.2-10V78.9h6.3v31.1c0.2,2.6,1.1,4.8,2.8,6.7c1.7,1.8,4.2,2.8,7.6,3c2.4,0,4.6-0.4,6.7-1.2
					c2.1-0.8,3.9-1.9,5.5-3.3c1.5-1.4,2.8-3.1,3.7-5.1c0.9-2,1.4-4.2,1.4-6.6V78.9h6.3V125.7z"/>
				<path class="st1" d="M603.9,78.9h5.4l0.6,11.9c1.7-3.8,4.2-7,7.5-9.3c3.3-2.4,7.3-3.6,11.9-3.6c4.5,0,8.1,1.3,10.8,3.8
					s4.1,5.9,4.2,10v33.3h-6.3V93.9c-0.2-2.6-1.1-4.8-2.8-6.7c-1.7-1.8-4.2-2.8-7.6-3c-2.5,0-4.7,0.4-6.8,1.2s-3.9,1.9-5.5,3.4
					c-1.6,1.5-2.8,3.2-3.7,5.2c-0.9,2-1.3,4.2-1.3,6.6v24.5h-6.3V78.9z"/>
				<path class="st1" d="M659.6,78.9h5.4l0.6,11.9c1.7-3.8,4.2-7,7.5-9.3c3.3-2.4,7.3-3.6,11.9-3.6c4.5,0,8.1,1.3,10.8,3.8
					s4.1,5.9,4.2,10v33.3h-6.3V93.9c-0.2-2.6-1.1-4.8-2.8-6.7c-1.7-1.8-4.2-2.8-7.6-3c-2.5,0-4.7,0.4-6.8,1.2s-3.9,1.9-5.5,3.4
					c-1.6,1.5-2.8,3.2-3.7,5.2c-0.9,2-1.3,4.2-1.3,6.6v24.5h-6.3V78.9z"/>
				<path class="st1" d="M753.4,119.5c-2.2,2-4.8,3.6-7.8,4.7s-6.1,1.7-9.3,1.7c-3.4,0-6.6-0.6-9.5-1.9c-3-1.3-5.5-3-7.7-5.1
					c-2.2-2.2-3.9-4.7-5.2-7.6c-1.3-2.9-1.9-6-1.9-9.3c0-3.3,0.6-6.4,1.9-9.4c1.3-3,3-5.5,5.2-7.7c2.2-2.2,4.7-3.9,7.7-5.2
					c2.9-1.3,6-1.9,9.3-1.9c5.1,0,9.5,1.5,13.2,4.6c3.7,3.1,6.5,7,8.2,11.8c-2.6,1-5.5,2.1-8.7,3.4c-3.2,1.3-6.5,2.6-9.8,3.9
					c-3.3,1.3-6.7,2.7-10,4c-3.3,1.3-6.4,2.6-9.2,3.7c1.4,3.2,3.5,5.7,6.4,7.6c2.9,1.9,6.2,2.9,9.9,2.9c2.5,0,4.8-0.4,7-1.3
					c2.2-0.8,4.1-2,5.7-3.5L753.4,119.5z M749.5,92.6c-1.3-2.6-3.2-4.7-5.5-6.2c-2.4-1.5-5-2.2-8-2.2c-2.5,0-4.8,0.5-6.9,1.4
					c-2.2,1-4,2.2-5.7,3.9s-2.9,3.5-3.8,5.6c-0.9,2.1-1.4,4.4-1.4,6.7c0,1.2,0.1,2.3,0.3,3.2c2.4-1,4.9-2,7.6-3.1
					c2.7-1.1,5.4-2.2,8.1-3.3c2.7-1.1,5.3-2.2,8-3.2C744.8,94.3,747.2,93.4,749.5,92.6z"/>
				<path class="st1" d="M774.4,125.1H768V36.7h6.3V125.1z"/>
			</g>
		</g>
	</g>
	<g>
		<path class="st2" d="M84,180.2l0-152.4C84,14.6,97.9,6.1,109.6,12l155,76c13,6.6,12.9,25.2-0.2,31.6l-155,76.5
			C97.7,201.9,84,193.3,84,180.2z"/>
		<linearGradient id="SVGID_1_" gradientUnits="userSpaceOnUse" x1="89.8885" y1="193.6457" x2="112.6984" y2="167.619">
			<stop  offset="0.1135" style="stop-color:#00FFFF"/>
			<stop  offset="1" style="stop-color:#29ABE2"/>
		</linearGradient>
		<path class="st3" d="M95.6,164.3c-0.1,0-0.4,0.2-0.4,0.2c-8.7,3.3-13.3,13-10.2,21.9S97.7,200,106.6,197c0,0,0.3-0.1,0.5-0.2
			c9-3.2,13.7-13,10.5-22S104.6,161.2,95.6,164.3z"/>
		<linearGradient id="SVGID_2_" gradientUnits="userSpaceOnUse" x1="68.9955" y1="133.4849" x2="156.7195" y2="33.3896">
			<stop  offset="0.1135" style="stop-color:#00FFFF"/>
			<stop  offset="1" style="stop-color:#29ABE2"/>
		</linearGradient>
		<path class="st4" d="M49.3,114.4L49.3,114.4c-4.2-8.6-0.6-18.9,8-23.1l96-46.8c8.6-4.2,18.9-0.6,23.1,8l0,0
			c4.2,8.6,0.6,18.9-8,23.1l-96,46.8C63.9,126.6,53.5,123,49.3,114.4z"/>
		<linearGradient id="SVGID_3_" gradientUnits="userSpaceOnUse" x1="79.3461" y1="163.6695" x2="135.1857" y2="99.9551">
			<stop  offset="0.1135" style="stop-color:#00FFFF"/>
			<stop  offset="1" style="stop-color:#29ABE2"/>
		</linearGradient>
		<path class="st5" d="M67.3,151.3L67.3,151.3c-4.2-8.6-0.6-18.9,8-23.1l48.8-23.8c8.6-4.2,18.9-0.6,23.1,8l0,0
			c4.2,8.6,0.6,18.9-8,23.1l-48.8,23.8C81.8,163.5,71.5,159.9,67.3,151.3z"/>
	</g>
</g>
</svg>
