<?xml version="1.0" encoding="utf-8"?>
<!-- Generator: Adobe Illustrator 23.0.1, SVG Export Plug-In . SVG Version: 6.00 Build 0)  -->
<svg version="1.1" id="Capa_1" xmlns="http://www.w3.org/2000/svg" xmlns:xlink="http://www.w3.org/1999/xlink" x="0px" y="0px"
	 viewBox="0 0 825 198" style="enable-background:new 0 0 825 198;" xml:space="preserve">
<style type="text/css">
	.st0{fill:#00006C;}
	.st1{fill:#00CAF1;}
	.st2{fill:url(#SVGID_1_);}
	.st3{fill:url(#SVGID_2_);}
	.st4{fill:url(#SVGID_3_);}
</style>
<g>
	<g>
		<g>
			<g>
				<path class="st0" d="M338.3,97.4c0,3.5-0.6,6.7-1.8,9.7c-1.2,3-2.9,5.6-5.1,7.8c-2.2,2.2-4.8,3.9-7.8,5.2
					c-3,1.3-6.2,1.9-9.8,1.9c-4.4,0-8.3-1-11.7-3.1c-3.4-2-5.8-4.6-7.1-7.5c0,0.8,0,1.6,0.1,2.3c0,0.7,0.1,1.6,0.1,2.4v27.6h-6.5
					V73.9h6.2c0,0.2,0,0.7,0.1,1.5c0,0.8,0.1,1.7,0.1,2.7c0,1,0,2,0.1,3c0,1,0.1,1.9,0.1,2.7c1.5-2.9,3.9-5.5,7.2-7.7
					c3.3-2.2,7.2-3.3,11.8-3.3c3.5,0,6.8,0.6,9.7,1.8c2.9,1.2,5.5,2.9,7.7,5.1c2.2,2.2,3.8,4.8,5.1,7.8
					C337.7,90.5,338.3,93.8,338.3,97.4z M331.3,97.4c0-2.6-0.4-5-1.3-7.2c-0.9-2.2-2.1-4.2-3.7-5.8c-1.6-1.6-3.5-2.9-5.7-3.8
					c-2.2-0.9-4.6-1.4-7.2-1.4c-2.6,0-5,0.5-7.2,1.4c-2.2,0.9-4.2,2.2-5.8,3.8c-1.6,1.6-2.9,3.5-3.9,5.7c-0.9,2.2-1.4,4.6-1.4,7.2
					s0.5,5,1.4,7.2c0.9,2.2,2.2,4.1,3.9,5.8c1.6,1.6,3.6,2.9,5.8,3.9c2.2,0.9,4.7,1.4,7.2,1.4c2.6,0,5-0.5,7.2-1.4
					c2.2-0.9,4.1-2.2,5.7-3.9c1.6-1.6,2.8-3.6,3.7-5.8C330.9,102.3,331.3,100,331.3,97.4z"/>
				<path class="st0" d="M357.7,121h-6.5V30.8h6.5V121z"/>
				<path class="st0" d="M370.6,97.7c0-3.4,0.6-6.6,1.9-9.6c1.3-3,3.1-5.7,5.3-8c2.2-2.3,4.8-4.1,7.8-5.4c3-1.3,6.2-1.9,9.5-1.9
					c2.4,0,4.6,0.3,6.6,0.9c2,0.6,3.9,1.5,5.5,2.5c1.6,1.1,3,2.2,4.1,3.5c1.1,1.3,1.9,2.6,2.5,3.8l0.5-9.8h6V121h-6.5v-4.8
					c0-0.9,0-1.7,0.1-2.5c0-0.8,0.1-1.5,0.1-2.2c-0.5,1.3-1.4,2.6-2.5,3.8c-1.1,1.2-2.5,2.3-4.1,3.4c-1.6,1-3.4,1.8-5.5,2.4
					c-2,0.6-4.3,0.9-6.7,0.9c-3.5,0-6.8-0.6-9.8-1.9c-3-1.3-5.6-3-7.8-5.2c-2.2-2.2-3.9-4.8-5.1-7.7
					C371.2,104.1,370.6,101,370.6,97.7z M377,97.3c0,2.6,0.5,5,1.4,7.2c0.9,2.2,2.2,4.1,3.9,5.8c1.6,1.6,3.6,2.9,5.8,3.9
					c2.2,0.9,4.7,1.4,7.2,1.4c2.6,0,5-0.5,7.2-1.4c2.2-0.9,4.2-2.2,5.8-3.9c1.6-1.6,2.9-3.6,3.9-5.8c0.9-2.2,1.4-4.6,1.4-7.2
					c0-2.5-0.5-4.9-1.4-7.1c-0.9-2.2-2.2-4.1-3.9-5.8c-1.6-1.6-3.6-2.9-5.8-3.9c-2.2-0.9-4.7-1.4-7.2-1.4c-2.6,0-5,0.5-7.2,1.4
					c-2.2,0.9-4.2,2.2-5.8,3.8c-1.6,1.6-2.9,3.5-3.9,5.7C377.5,92.3,377,94.7,377,97.3z"/>
				<path class="st0" d="M447.2,143.6h-6.8c1-2.1,1.9-4.1,2.8-5.9c0.8-1.8,1.6-3.7,2.4-5.6c0.8-1.9,1.6-3.9,2.5-5.9s1.9-4.4,3.1-7
					c-3.6-7.2-7.1-14.7-10.6-22.6c-3.5-7.8-7-15.4-10.6-22.7h6.9c2.4,4.7,4.4,9,6.1,12.7s3.3,7.2,4.7,10.3c1.4,3.1,2.6,6,3.7,8.7
					c1.1,2.7,2.2,5.3,3.3,7.8c1.1-2.5,2.2-5.1,3.2-7.8c1.1-2.7,2.3-5.6,3.7-8.7c1.4-3.1,2.9-6.5,4.7-10.3s3.8-8,6.1-12.7h6.9
					L447.2,143.6z"/>
			</g>
		</g>
		<g>
			<g>
				<path class="st1" d="M490.6,120.7V36.6h48.2V44h-40.2v31.8h35.5v7.5h-35.5v37.3H490.6z"/>
				<path class="st1" d="M585.7,121.3h-5.4l-0.7-12.7c-1.7,3.9-4.2,7.1-7.5,9.5c-3.4,2.4-7.5,3.7-12.3,3.7c-4.6,0-8.3-1.3-11-3.9
					c-2.7-2.6-4.1-6-4.3-10.2v-34h6.5v31.8c0.2,2.7,1.1,4.9,2.8,6.8c1.7,1.9,4.3,2.9,7.8,3.1c2.4,0,4.7-0.4,6.9-1.2
					c2.2-0.8,4-2,5.6-3.4c1.6-1.5,2.8-3.2,3.8-5.2c0.9-2,1.4-4.3,1.4-6.7V73.6h6.5V121.3z"/>
				<path class="st1" d="M601.8,73.6h5.5l0.6,12.1c1.7-3.9,4.3-7.1,7.7-9.5c3.4-2.4,7.4-3.7,12.1-3.7c4.6,0,8.3,1.3,11,3.9
					c2.7,2.6,4.1,6,4.3,10.2v34h-6.5V88.9c-0.2-2.7-1.1-4.9-2.8-6.8c-1.7-1.9-4.3-2.9-7.8-3.1c-2.5,0-4.8,0.4-6.9,1.2
					c-2.1,0.8-4,2-5.6,3.5c-1.6,1.5-2.9,3.3-3.8,5.3c-0.9,2-1.4,4.3-1.4,6.7v25h-6.5V73.6z"/>
				<path class="st1" d="M658.7,73.6h5.5l0.6,12.1c1.7-3.9,4.3-7.1,7.7-9.5c3.4-2.4,7.4-3.7,12.1-3.7c4.6,0,8.3,1.3,11,3.9
					c2.7,2.6,4.1,6,4.3,10.2v34h-6.5V88.9c-0.2-2.7-1.1-4.9-2.8-6.8c-1.7-1.9-4.3-2.9-7.8-3.1c-2.5,0-4.8,0.4-6.9,1.2
					c-2.1,0.8-4,2-5.6,3.5c-1.6,1.5-2.9,3.3-3.8,5.3c-0.9,2-1.4,4.3-1.4,6.7v25h-6.5V73.6z"/>
				<path class="st1" d="M754.5,115c-2.3,2-4.9,3.7-8,4.8c-3.1,1.2-6.2,1.8-9.5,1.8c-3.5,0-6.7-0.6-9.7-1.9c-3-1.3-5.7-3-7.9-5.2
					c-2.2-2.2-4-4.8-5.3-7.8c-1.3-3-1.9-6.2-1.9-9.5c0-3.4,0.6-6.6,1.9-9.6c1.3-3,3.1-5.7,5.3-7.9c2.2-2.2,4.8-4,7.8-5.3
					c3-1.3,6.2-1.9,9.5-1.9c5.2,0,9.7,1.6,13.5,4.7c3.8,3.1,6.6,7.1,8.4,12c-2.7,1-5.6,2.2-8.9,3.5c-3.3,1.3-6.6,2.6-10,4
					c-3.4,1.4-6.8,2.7-10.2,4.1c-3.4,1.4-6.5,2.7-9.4,3.8c1.4,3.2,3.6,5.8,6.5,7.8c2.9,2,6.3,2.9,10.1,2.9c2.5,0,4.9-0.4,7.2-1.3
					c2.3-0.9,4.2-2,5.8-3.5L754.5,115z M750.5,87.5c-1.3-2.7-3.2-4.8-5.7-6.3c-2.4-1.5-5.1-2.3-8.1-2.3c-2.5,0-4.9,0.5-7.1,1.5
					c-2.2,1-4.1,2.3-5.8,3.9c-1.6,1.6-2.9,3.6-3.9,5.7c-0.9,2.2-1.4,4.5-1.4,6.9c0,1.3,0.1,2.4,0.4,3.3c2.4-1,5-2.1,7.8-3.2
					c2.7-1.1,5.5-2.2,8.2-3.4c2.7-1.1,5.5-2.2,8.1-3.3C745.7,89.3,748.2,88.3,750.5,87.5z"/>
				<path class="st1" d="M775.9,120.7h-6.5V30.5h6.5V120.7z"/>
			</g>
		</g>
	</g>
	<g>
		<path class="st0" d="M83.8,171.7l0-145.4c0-12.6,13.2-20.7,24.4-15L256,83.7c12.4,6.3,12.3,24-0.2,30.1l-147.8,72.9
			C96.9,192.3,83.8,184.2,83.8,171.7z"/>
		<linearGradient id="SVGID_1_" gradientUnits="userSpaceOnUse" x1="89.4382" y1="184.4753" x2="111.187" y2="159.6594">
			<stop  offset="0.1135" style="stop-color:#00FFFF"/>
			<stop  offset="1" style="stop-color:#29ABE2"/>
		</linearGradient>
		<path class="st2" d="M94.9,156.5c-0.1,0-0.4,0.2-0.4,0.2c-8.3,3.2-12.7,12.4-9.7,20.9c3,8.5,12.2,12.9,20.6,10.2
			c0,0,0.3-0.1,0.4-0.1c8.6-3,13.1-12.4,10.1-21S103.4,153.5,94.9,156.5z"/>
		<linearGradient id="SVGID_2_" gradientUnits="userSpaceOnUse" x1="69.5172" y1="127.1133" x2="153.1602" y2="31.6745">
			<stop  offset="0.1135" style="stop-color:#00FFFF"/>
			<stop  offset="1" style="stop-color:#29ABE2"/>
		</linearGradient>
		<path class="st3" d="M50.7,108.9L50.7,108.9c-4-8.2-0.6-18.1,7.6-22.1l91.5-44.6c8.2-4,18.1-0.6,22.1,7.6l0,0
			c4,8.2,0.6,18.1-7.6,22.1l-91.5,44.6C64.6,120.5,54.7,117.1,50.7,108.9z"/>
		<linearGradient id="SVGID_3_" gradientUnits="userSpaceOnUse" x1="79.3863" y1="155.8937" x2="132.6282" y2="95.1433">
			<stop  offset="0.1135" style="stop-color:#00FFFF"/>
			<stop  offset="1" style="stop-color:#29ABE2"/>
		</linearGradient>
		<path class="st4" d="M67.9,144.1L67.9,144.1c-4-8.2-0.6-18.1,7.6-22.1l46.6-22.7c8.2-4,18.1-0.6,22.1,7.6l0,0
			c4,8.2,0.6,18.1-7.6,22.1L90,151.7C81.8,155.7,71.9,152.3,67.9,144.1z"/>
	</g>
</g>
</svg>
