<?xml version="1.0" encoding="utf-8"?>
<!-- Generator: Adobe Illustrator 23.0.1, SVG Export Plug-In . SVG Version: 6.00 Build 0)  -->
<svg version="1.1" id="Capa_1" xmlns="http://www.w3.org/2000/svg" xmlns:xlink="http://www.w3.org/1999/xlink" x="0px" y="0px"
	 viewBox="0 0 453 302" style="enable-background:new 0 0 453 302;" xml:space="preserve">
<style type="text/css">
	.st0{fill:#FFFFFF;}
	.st1{fill:#00CAF1;}
	.st2{fill:#00006C;stroke:#FFFFFF;stroke-width:4;stroke-miterlimit:10;}
	.st3{fill:url(#SVGID_1_);}
	.st4{fill:url(#SVGID_2_);}
	.st5{fill:url(#SVGID_3_);}
</style>
<g>
	<g>
		<g>
			<g>
				<path class="st0" d="M102.1,240.9c0,2.2-0.4,4.3-1.2,6.2c-0.8,1.9-1.9,3.6-3.3,5c-1.4,1.4-3.1,2.5-5,3.3c-1.9,0.8-4,1.2-6.3,1.2
					c-2.8,0-5.3-0.7-7.5-2c-2.2-1.3-3.7-2.9-4.6-4.8c0,0.5,0,1,0,1.5c0,0.5,0,1,0,1.5v17.7h-4.2v-44.7h4c0,0.2,0,0.5,0,1
					c0,0.5,0,1.1,0,1.7c0,0.6,0,1.3,0,1.9s0,1.2,0,1.7c1-1.9,2.5-3.5,4.6-4.9c2.1-1.4,4.6-2.1,7.6-2.1c2.3,0,4.3,0.4,6.2,1.2
					c1.9,0.8,3.5,1.9,4.9,3.2c1.4,1.4,2.5,3,3.2,5C101.7,236.5,102.1,238.6,102.1,240.9z M97.6,240.9c0-1.7-0.3-3.2-0.8-4.6
					c-0.6-1.4-1.3-2.7-2.4-3.7c-1-1-2.3-1.9-3.7-2.5c-1.4-0.6-2.9-0.9-4.6-0.9c-1.7,0-3.2,0.3-4.6,0.9c-1.4,0.6-2.7,1.4-3.7,2.5
					c-1.1,1-1.9,2.3-2.5,3.7c-0.6,1.4-0.9,2.9-0.9,4.6c0,1.7,0.3,3.2,0.9,4.6c0.6,1.4,1.4,2.6,2.5,3.7c1.1,1.1,2.3,1.9,3.7,2.5
					c1.4,0.6,3,0.9,4.6,0.9c1.7,0,3.2-0.3,4.6-0.9c1.4-0.6,2.6-1.4,3.7-2.5c1-1.1,1.8-2.3,2.4-3.7C97.4,244,97.6,242.5,97.6,240.9z"
					/>
				<path class="st0" d="M114.6,256h-4.2v-57.9h4.2V256z"/>
				<path class="st0" d="M122.8,241.1c0-2.2,0.4-4.2,1.2-6.2c0.8-1.9,2-3.6,3.4-5.1c1.4-1.5,3.1-2.6,5-3.4c1.9-0.8,4-1.2,6.1-1.2
					c1.5,0,2.9,0.2,4.2,0.6c1.3,0.4,2.5,0.9,3.5,1.6c1,0.7,1.9,1.4,2.6,2.3c0.7,0.8,1.2,1.6,1.6,2.5l0.3-6.3h3.9V256h-4.2v-3.1
					c0-0.6,0-1.1,0-1.6c0-0.5,0-1,0-1.4c-0.4,0.9-0.9,1.7-1.6,2.5c-0.7,0.8-1.6,1.5-2.6,2.2c-1,0.7-2.2,1.2-3.5,1.5
					c-1.3,0.4-2.7,0.6-4.3,0.6c-2.3,0-4.4-0.4-6.3-1.2c-1.9-0.8-3.6-2-5-3.4c-1.4-1.4-2.5-3.1-3.3-4.9
					C123.2,245.2,122.8,243.2,122.8,241.1z M126.9,240.8c0,1.7,0.3,3.2,0.9,4.6c0.6,1.4,1.4,2.6,2.5,3.7s2.3,1.9,3.7,2.5
					c1.4,0.6,3,0.9,4.6,0.9c1.7,0,3.2-0.3,4.6-0.9c1.4-0.6,2.7-1.4,3.7-2.5c1.1-1.1,1.9-2.3,2.5-3.7c0.6-1.4,0.9-2.9,0.9-4.6
					c0-1.6-0.3-3.1-0.9-4.5c-0.6-1.4-1.4-2.6-2.5-3.7c-1.1-1.1-2.3-1.9-3.7-2.5c-1.4-0.6-3-0.9-4.6-0.9c-1.7,0-3.2,0.3-4.6,0.9
					c-1.4,0.6-2.7,1.4-3.7,2.5c-1.1,1-1.9,2.3-2.5,3.7C127.2,237.7,126.9,239.2,126.9,240.8z"/>
				<path class="st0" d="M171.9,270.5h-4.4c0.7-1.4,1.2-2.6,1.8-3.8c0.5-1.2,1-2.4,1.5-3.6c0.5-1.2,1-2.5,1.6-3.8s1.2-2.8,2-4.5
					c-2.3-4.6-4.6-9.5-6.8-14.5c-2.2-5-4.5-9.9-6.8-14.5h4.5c1.5,3,2.8,5.7,3.9,8.2c1.1,2.4,2.1,4.6,3,6.6c0.9,2,1.7,3.8,2.4,5.6
					c0.7,1.7,1.4,3.4,2.1,5c0.7-1.6,1.4-3.3,2.1-5s1.5-3.6,2.3-5.6c0.9-2,1.9-4.2,3-6.6c1.1-2.4,2.4-5.1,3.9-8.2h4.5L171.9,270.5z"
					/>
			</g>
		</g>
		<g>
			<g>
				<path class="st1" d="M199.8,255.8v-53.9h30.9v4.8h-25.8v20.4h22.7v4.8h-22.7v23.9H199.8z"/>
				<path class="st1" d="M260.7,256.2h-3.5l-0.5-8.2c-1.1,2.5-2.7,4.6-4.8,6.1c-2.2,1.6-4.8,2.3-7.9,2.3c-3,0-5.3-0.8-7.1-2.5
					c-1.7-1.7-2.7-3.9-2.8-6.6v-21.8h4.2V246c0.1,1.7,0.7,3.2,1.8,4.4c1.1,1.2,2.8,1.9,5,2c1.6,0,3-0.3,4.4-0.8
					c1.4-0.5,2.6-1.3,3.6-2.2c1-0.9,1.8-2.1,2.4-3.4c0.6-1.3,0.9-2.7,0.9-4.3v-16.1h4.2V256.2z"/>
				<path class="st1" d="M271.1,225.6h3.5l0.4,7.8c1.1-2.5,2.7-4.6,4.9-6.1c2.2-1.6,4.8-2.3,7.8-2.3c3,0,5.3,0.8,7.1,2.5
					c1.7,1.7,2.7,3.9,2.8,6.6v21.8h-4.2v-20.4c-0.1-1.7-0.7-3.2-1.8-4.4c-1.1-1.2-2.8-1.9-5-2c-1.6,0-3.1,0.3-4.5,0.8
					c-1.4,0.5-2.6,1.3-3.6,2.2c-1,1-1.8,2.1-2.4,3.4c-0.6,1.3-0.9,2.7-0.9,4.3v16h-4.2V225.6z"/>
				<path class="st1" d="M307.6,225.6h3.5l0.4,7.8c1.1-2.5,2.7-4.6,4.9-6.1c2.2-1.6,4.8-2.3,7.8-2.3c3,0,5.3,0.8,7.1,2.5
					c1.7,1.7,2.7,3.9,2.8,6.6v21.8h-4.2v-20.4c-0.1-1.7-0.7-3.2-1.8-4.4c-1.1-1.2-2.8-1.9-5-2c-1.6,0-3.1,0.3-4.5,0.8
					c-1.4,0.5-2.6,1.3-3.6,2.2c-1,1-1.8,2.1-2.4,3.4c-0.6,1.3-0.9,2.7-0.9,4.3v16h-4.2V225.6z"/>
				<path class="st1" d="M369,252.2c-1.5,1.3-3.2,2.3-5.1,3.1c-2,0.8-4,1.1-6.1,1.1c-2.2,0-4.3-0.4-6.2-1.2c-1.9-0.8-3.6-2-5.1-3.4
					c-1.4-1.4-2.6-3.1-3.4-5c-0.8-1.9-1.2-4-1.2-6.1c0-2.2,0.4-4.2,1.2-6.2s2-3.6,3.4-5.1c1.4-1.4,3.1-2.6,5-3.4
					c1.9-0.8,4-1.2,6.1-1.2c3.3,0,6.2,1,8.6,3c2.4,2,4.2,4.6,5.4,7.7c-1.7,0.7-3.6,1.4-5.7,2.2c-2.1,0.8-4.2,1.7-6.4,2.6
					c-2.2,0.9-4.4,1.8-6.5,2.6c-2.2,0.9-4.2,1.7-6,2.5c0.9,2.1,2.3,3.7,4.2,5c1.9,1.3,4,1.9,6.5,1.9c1.6,0,3.1-0.3,4.6-0.8
					c1.5-0.6,2.7-1.3,3.7-2.3L369,252.2z M366.4,234.5c-0.9-1.7-2.1-3.1-3.6-4c-1.6-1-3.3-1.5-5.2-1.5c-1.6,0-3.1,0.3-4.5,0.9
					c-1.4,0.6-2.6,1.5-3.7,2.5c-1.1,1.1-1.9,2.3-2.5,3.7c-0.6,1.4-0.9,2.9-0.9,4.4c0,0.8,0.1,1.5,0.2,2.1c1.6-0.7,3.2-1.3,5-2
					c1.8-0.7,3.5-1.4,5.3-2.2c1.8-0.7,3.5-1.4,5.2-2.1C363.3,235.7,364.9,235.1,366.4,234.5z"/>
				<path class="st1" d="M382.7,255.8h-4.2V198h4.2V255.8z"/>
			</g>
		</g>
	</g>
	<g>
		<path class="st2" d="M168.3,156.8l0-115.7c0-10,10.5-16.5,19.5-12l117.6,57.6c9.9,5,9.8,19.1-0.1,24l-117.6,58
			C178.8,173.2,168.3,166.7,168.3,156.8z"/>
		<linearGradient id="SVGID_1_" gradientUnits="userSpaceOnUse" x1="172.8169" y1="166.992" x2="190.1277" y2="147.24">
			<stop  offset="0.1135" style="stop-color:#00FFFF"/>
			<stop  offset="1" style="stop-color:#29ABE2"/>
		</linearGradient>
		<path class="st3" d="M177.1,144.7c-0.1,0-0.3,0.1-0.3,0.1c-6.6,2.5-10.1,9.9-7.7,16.6c2.4,6.7,9.7,10.3,16.4,8.1
			c0,0,0.2-0.1,0.3-0.1c6.8-2.4,10.4-9.9,8-16.7C191.4,145.9,184,142.3,177.1,144.7z"/>
		<linearGradient id="SVGID_2_" gradientUnits="userSpaceOnUse" x1="156.961" y1="121.3352" x2="223.5359" y2="45.3714">
			<stop  offset="0.1135" style="stop-color:#00FFFF"/>
			<stop  offset="1" style="stop-color:#29ABE2"/>
		</linearGradient>
		<path class="st4" d="M142,106.9L142,106.9c-3.2-6.5-0.5-14.4,6-17.6l72.9-35.5c6.5-3.2,14.4-0.5,17.6,6v0c3.2,6.5,0.5,14.4-6,17.6
			l-72.9,35.5C153.1,116.1,145.2,113.4,142,106.9z"/>
		<linearGradient id="SVGID_3_" gradientUnits="userSpaceOnUse" x1="164.8162" y1="144.2427" x2="207.1937" y2="95.8889">
			<stop  offset="0.1135" style="stop-color:#00FFFF"/>
			<stop  offset="1" style="stop-color:#29ABE2"/>
		</linearGradient>
		<path class="st5" d="M155.7,134.9L155.7,134.9c-3.2-6.5-0.5-14.4,6-17.6l37.1-18.1c6.5-3.2,14.4-0.5,17.6,6l0,0
			c3.2,6.5,0.5,14.4-6,17.6l-37.1,18.1C166.7,144.1,158.8,141.4,155.7,134.9z"/>
	</g>
</g>
</svg>
