<svg width="805" height="453" viewBox="0 0 805 453" fill="none" xmlns="http://www.w3.org/2000/svg">
<path d="M0.226369 443.167C0.535049 444.728 1.14894 446.179 2.00326 447.455L4.4964 445.786C5.14669 446.758 5.98361 447.595 6.9549 448.246L5.28559 450.738C6.5619 451.593 8.01282 452.207 9.57352 452.516L10.1559 449.573C10.716 449.684 11.2973 449.743 11.8952 449.743H14.8999V452.743H20.9092V449.743H26.9185V452.743H32.9278V449.743H38.9371V452.743H44.9464V449.743H50.9557V452.743H56.965V449.743H62.9743V452.743H68.9836V449.743H74.9929V452.743H81.0022V449.743H87.0115V452.743H93.0208V449.743H99.0301V452.743H105.039V449.743H111.049V452.743H117.058V449.743H123.067V452.743H129.077V449.743H135.086V452.743H141.095V449.743H147.105V452.743H153.114V449.743H159.123V452.743H165.132V449.743H171.142V452.743H177.151V449.743H183.16V452.743H189.17V449.743H195.179V452.743H201.188V449.743H207.198V452.743H213.207V449.743H219.216V452.743H225.226V449.743H231.235V452.743H237.244V449.743H243.253V452.743H249.263V449.743H255.272V452.743H261.281V449.743H267.291V452.743H273.3V449.743H279.309V452.743H285.319V449.743H291.328V452.743H297.337V449.743H303.347V452.743H309.356V449.743H315.365V452.743H321.374V449.743H327.384V452.743H333.393V449.743H339.402V452.743H345.412V449.743H351.421V452.743H357.43V449.743H363.44V452.743H369.449V449.743H375.458V452.743H381.468V449.743H387.477V452.743H393.486V449.743H399.495V452.743H405.505V449.743H411.514V452.743H417.523V449.743H423.533V452.743H429.542V449.743H435.551V452.743H441.561V449.743H447.57V452.743H453.579V449.743H459.589V452.743L465.598 452.743V449.743L471.607 449.743V452.743H477.616V449.743H483.626V452.743H489.635V449.743H495.644V452.743H501.654V449.743H507.663V452.743H513.672V449.743H519.682V452.743H525.691V449.743H531.7V452.743H537.709V449.743H543.719V452.743H549.728V449.743H555.737V452.743H561.747V449.743H567.756V452.743H573.765V449.743H579.774V452.743H585.784V449.743H591.793V452.743H597.802V449.743H603.812V452.743H609.821V449.743H615.83V452.743H621.839V449.743H627.849V452.743H633.858V449.743H639.867V452.743H645.876V449.743H651.886V452.743H657.895V449.743H663.904V452.743H669.914V449.743H675.923V452.743H681.932V449.743H687.941V452.743H693.951V449.743H699.96V452.743H705.969V449.743H711.979V452.743H717.988V449.743H723.997V452.743H730.006V449.743H736.016V452.743H742.025V449.743H748.034V452.743H754.043V449.743H760.053V452.743H766.062V449.743H772.071V452.743H778.081V449.743H784.09V452.743H790.099V449.743H793.105C793.703 449.743 794.284 449.684 794.844 449.573L795.426 452.516C796.987 452.207 798.438 451.593 799.714 450.738L798.045 448.246C799.016 447.595 799.853 446.758 800.504 445.786L802.997 447.455C803.851 446.179 804.465 444.728 804.774 443.167L801.831 442.585C801.941 442.024 802 441.443 802 440.845V437.866H805V431.909H802V425.951H805V419.993H802V414.036H805V408.078H802V402.121H805V396.163H802V390.205H805V384.248H802V378.29H805V372.333H802V366.375H805V360.417H802V354.46H805V348.502H802V342.545H805V336.587H802V330.629H805V324.672H802V318.714H805V312.757H802V306.799H805V300.841H802V294.884H805V288.926H802V282.969H805V277.011H802V271.053H805V265.096H802V259.138H805V253.181H802V247.223H805V241.265H802V235.308H805V229.35H802V223.393H805V217.435H802V211.477H805V205.52H802V199.562H805V193.605H802V187.647H805V181.689H802V175.732H805V169.774H802V163.817H805V157.859H802V151.901H805V145.944H802V139.986H805V134.029H802V128.071H805V122.113H802V116.156H805V110.198H802V104.24H805V98.2828H802V92.3252H805V86.3676H802V80.41H805V74.4524H802V68.4948H805V62.5372H802V56.5796H805V50.6219H802V44.6643H805V38.7067H802V32.7491H805V26.7915H802V20.8339H805V14.8763H802V11.8977C802 11.2996 801.941 10.7182 801.831 10.158L804.774 9.57593C804.465 8.01511 803.851 6.56406 802.997 5.2876L800.504 6.95621C799.853 5.98456 799.016 5.14743 798.045 4.49695L799.714 2.0043C798.438 1.14957 796.987 0.535339 795.426 0.226501L794.844 3.16943C794.284 3.05859 793.703 3 793.105 3H790.1V0H784.091V3H778.081V0H772.072V3H766.063V0H760.054V3H754.044V0H748.035V3H742.026V0H736.016V3H730.007V0H723.998V3H717.988V0H711.979V3H705.97V0H699.961V3H693.951V0H687.942V3H681.933V0H675.923V3H669.914V0H663.905V3H657.895V0H651.886V3H645.877V0H639.867V3H633.858V0H627.849V3H621.84V0H615.83V3H609.821V0H603.812V3H597.802V0H591.793V3H585.784V0H579.774V3H573.765V0H567.756V3H561.746V0H555.737V3H549.728V0H543.719V3H537.709V0H531.7V3H525.691V0H519.681V3H513.672V0H507.663V3H501.653V0H495.644V3H489.635V0H483.625V3H477.616V0H471.607V3H465.598V0L459.588 0V3H453.579V0H447.57V3H441.56V0H435.551V3H429.542V0H423.532V3H417.523V0H411.514V3H405.504V0H399.495V3H393.486V0H387.477V3H381.467V0H375.458V3H369.449V0H363.439V3H357.43V0H351.421V3H345.411V0H339.402V3H333.393V0H327.383V3H321.374V0H315.365V3H309.355V0H303.346V3H297.337V0H291.328V3H285.318V0H279.309V3H273.3V0H267.29V3H261.281V0H255.272V3H249.263V0H243.253V3H237.244V0H231.235V3H225.225V0H219.216V3H213.207V0H207.198V3H201.188V0H195.179V3H189.17V0H183.161V3H177.151V0H171.142V3H165.133V0H159.123V3H153.114V0H147.105V3H141.096V0H135.086V3H129.077V0H123.068V3H117.058V0H111.049V3H105.04V0H99.0307V3H93.0214V0H87.0121V3H81.0029V0H74.9936V3H68.9843V0H62.975V3H56.9657V0H50.9565V3H44.9472V0H38.9379V3H32.9286V0H26.9193V3H20.9101V0H14.9008L14.9008 3H11.8952C11.2973 3 10.716 3.05859 10.1559 3.16943L9.57351 0.226501C8.01282 0.535339 6.5619 1.14957 5.28559 2.0043L6.9549 4.49695C5.9836 5.14743 5.14669 5.98459 4.4964 6.95621L2.00326 5.2876C1.14894 6.56406 0.535048 8.01511 0.226369 9.57593L3.16937 10.158C3.05857 10.7182 3 11.2996 3 11.8977L3 14.8765H0L0 20.8341H3L3 26.7917H0L0 32.7493H3L3 38.7069H0L0 44.6645H3L3 50.6221H0L0 56.5797H3L3 62.5373H0L0 68.4949H3L3 74.4525H0L0 80.4101H3V86.3677H0L0 92.3253H3L3 98.2829H0L0 104.241H3L3 110.198H0L0 116.156H3V122.113H0L0 128.071H3L3 134.029H0L0 139.986H3L3 145.944H0L0 151.901H3V157.859H0L0 163.817H3L3 169.774H0L0 175.732H3L3 181.689H0L0 187.647H3L3 193.604H0L0 199.562H3L3 205.52H0L0 211.477H3L3 217.435H0L0 223.392H3L3 229.35H0L0 235.308H3L3 241.265H0L0 247.223H3V253.18H0L0 259.138H3L3 265.096H0L0 271.053H3L3 277.011H0L0 282.968H3V288.926H0L0 294.884H3L3 300.841H0L0 306.799H3L3 312.757H0L0 318.714H3V324.672H0L0 330.629H3L3 336.587H0L0 342.545H3L3 348.502H0L0 354.46H3L3 360.417H0L0 366.375H3L3 372.333H0L0 378.29H3L3 384.248H0L0 390.205H3L3 396.163H0L0 402.121H3L3 408.078H0L0 414.036H3V419.994H0L0 425.951H3L3 431.909H0L0 437.866H3V440.845C3 441.443 3.05857 442.024 3.16937 442.585L0.226369 443.167Z" fill="#E8EFF7" fill-opacity="0.3" stroke="#73A1C2" stroke-width="6" stroke-linejoin="round" stroke-dasharray="6 6"/>
<path d="M45.6154 422.952V438.564C45.6125 438.637 45.6294 438.71 45.6642 438.774C45.6989 438.839 45.7504 438.892 45.8131 438.93C45.8758 438.968 45.9475 438.989 46.0208 438.989C46.094 438.99 46.1661 438.971 46.2295 438.934L58.8536 431.128C58.9152 431.089 58.9658 431.034 59.0009 430.97C59.0359 430.906 59.0543 430.833 59.0543 430.76C59.0543 430.687 59.0359 430.615 59.0009 430.551C58.9658 430.486 58.9152 430.432 58.8536 430.392L46.2295 422.586C46.1667 422.548 46.0948 422.528 46.0215 422.528C45.9482 422.528 45.8763 422.548 45.8133 422.585C45.7503 422.623 45.6986 422.677 45.6638 422.741C45.6289 422.806 45.6122 422.878 45.6154 422.952Z" fill="#B6C8DD"/>
<path d="M758.606 425.67H72.0703C71.3509 425.67 70.7677 426.253 70.7677 426.973V433.015C70.7677 433.734 71.3509 434.318 72.0703 434.318H758.606C759.326 434.318 759.909 433.734 759.909 433.015V426.973C759.909 426.253 759.326 425.67 758.606 425.67Z" fill="#B6C8DD"/>
<path d="M246.318 425.67H72.0703C71.3509 425.67 70.7677 426.253 70.7677 426.973V433.015C70.7677 433.734 71.3509 434.318 72.0703 434.318H246.318C247.038 434.318 247.621 433.734 247.621 433.015V426.973C247.621 426.253 247.038 425.67 246.318 425.67Z" fill="#F2F5F9"/>
</svg>
