<svg width="95" height="95" viewBox="0 0 95 95" fill="none" xmlns="http://www.w3.org/2000/svg">
<circle cx="47.5" cy="47.5" r="43.5" fill="white" fill-opacity="0.8"/>
<path fill-rule="evenodd" clip-rule="evenodd" d="M95 47.5C95 73.7335 73.7335 95 47.5 95C21.2665 95 0 73.7335 0 47.5C0 21.2665 21.2665 0 47.5 0C73.7335 0 95 21.2665 95 47.5ZM47.5 91C71.5244 91 91 71.5244 91 47.5C91 23.4756 71.5244 4 47.5 4C23.4756 4 4 23.4756 4 47.5C4 71.5244 23.4756 91 47.5 91Z" fill="white"/>
<path d="M67.5385 47.3258L38.4219 64.8708C38.2776 64.9551 38.1133 64.9997 37.9458 65C37.7784 65.0003 37.614 64.9562 37.4693 64.8723C37.3246 64.7884 37.205 64.6677 37.1225 64.5226C37.0401 64.3774 36.9979 64.2131 37.0002 64.0464V28.9564C36.9967 28.7893 37.0382 28.6242 37.1204 28.4784C37.2025 28.3326 37.3223 28.2114 37.4674 28.1273C37.6125 28.0431 37.7775 27.9992 37.9453 28C38.1132 28.0008 38.2778 28.0464 38.4219 28.1319L67.5385 45.677C67.6796 45.7638 67.7961 45.8852 67.8769 46.0295C67.9576 46.1738 68 46.3362 68 46.5014C68 46.6666 67.9576 46.829 67.8769 46.9733C67.7961 47.1176 67.6796 47.239 67.5385 47.3258Z" fill="#545457"/>
</svg>
