<svg width="341" height="97" viewBox="0 0 341 97" fill="none" xmlns="http://www.w3.org/2000/svg">
<path d="M135.437 53.1627C135.437 54.8006 135.156 56.2982 134.595 57.7021C134.033 59.1061 133.237 60.3228 132.207 61.3524C131.177 62.382 129.959 63.1775 128.555 63.7858C127.15 64.3943 125.652 64.675 123.967 64.675C121.907 64.675 120.081 64.2071 118.488 63.2243C116.897 62.2884 115.773 61.0716 115.165 59.7144C115.165 60.0888 115.165 60.4632 115.212 60.7908C115.212 61.1184 115.258 61.5396 115.258 61.914V74.8302H112.215V42.1652H115.118C115.118 42.2588 115.118 42.4928 115.165 42.8671C115.165 43.2415 115.212 43.6628 115.212 44.1308C115.212 44.5986 115.212 45.0666 115.258 45.5346C115.258 46.0026 115.305 46.4238 115.305 46.7982C116.007 45.441 117.131 44.2244 118.676 43.1948C120.222 42.1652 122.047 41.6504 124.2 41.6504C125.839 41.6504 127.385 41.9312 128.742 42.4928C130.1 43.0543 131.318 43.85 132.347 44.8794C133.377 45.909 134.127 47.1258 134.735 48.5297C135.156 49.9337 135.437 51.478 135.437 53.1627ZM132.16 53.1627C132.16 51.946 131.973 50.8228 131.551 49.7932C131.13 48.7638 130.568 47.8278 129.819 47.079C129.07 46.3302 128.18 45.7218 127.15 45.3007C126.12 44.8794 124.996 44.6455 123.78 44.6455C122.562 44.6455 121.438 44.8794 120.408 45.3007C119.378 45.7218 118.441 46.3302 117.693 47.079C116.944 47.8278 116.335 48.7169 115.867 49.7465C115.446 50.776 115.212 51.8992 115.212 53.116C115.212 54.3326 115.446 55.4558 115.867 56.4854C116.289 57.5149 116.897 58.4042 117.693 59.1997C118.441 59.9484 119.378 60.5568 120.408 61.0248C121.438 61.446 122.609 61.6799 123.78 61.6799C124.996 61.6799 126.12 61.446 127.15 61.0248C128.18 60.6036 129.07 59.9952 129.819 59.1997C130.568 58.4509 131.13 57.5149 131.551 56.4854C131.973 55.4558 132.16 54.3795 132.16 53.1627Z" fill="white"/>
<path d="M144.519 64.206H141.477V21.9941H144.519V64.206Z" fill="white"/>
<path d="M150.559 53.3032C150.559 51.712 150.84 50.2145 151.448 48.8105C152.056 47.4066 152.899 46.143 153.929 45.0666C154.959 43.9903 156.177 43.1479 157.581 42.5396C158.986 41.9312 160.484 41.6504 162.029 41.6504C163.152 41.6504 164.183 41.7908 165.119 42.0716C166.055 42.3524 166.945 42.7736 167.694 43.2415C168.444 43.7564 169.099 44.2711 169.613 44.8794C170.129 45.4879 170.503 46.0962 170.784 46.6578L171.019 42.0716H173.828V64.2071H170.784V61.9607C170.784 61.5396 170.784 61.1652 170.831 60.7908C170.831 60.4164 170.878 60.0888 170.878 59.7613C170.644 60.3696 170.223 60.978 169.707 61.5396C169.193 62.1012 168.536 62.6159 167.788 63.1306C167.039 63.5986 166.196 63.973 165.213 64.2538C164.276 64.5346 163.199 64.675 162.075 64.675C160.437 64.675 158.892 64.3943 157.487 63.7858C156.083 63.1775 154.866 62.382 153.835 61.3524C152.805 60.3228 152.01 59.1061 151.448 57.749C150.84 56.2982 150.559 54.8475 150.559 53.3032ZM153.555 53.116C153.555 54.3326 153.789 55.4558 154.21 56.4854C154.631 57.5149 155.241 58.4042 156.036 59.1997C156.785 59.9484 157.722 60.5568 158.752 61.0248C159.782 61.446 160.953 61.6799 162.122 61.6799C163.34 61.6799 164.464 61.446 165.494 61.0248C166.524 60.6036 167.461 59.9952 168.209 59.1997C168.958 58.4509 169.567 57.5149 170.035 56.4854C170.456 55.4558 170.69 54.3326 170.69 53.116C170.69 51.946 170.456 50.8228 170.035 49.7932C169.613 48.7638 169.005 47.8745 168.209 47.079C167.461 46.3302 166.524 45.7218 165.494 45.2538C164.464 44.8327 163.293 44.5986 162.122 44.5986C160.906 44.5986 159.782 44.8327 158.752 45.2538C157.722 45.6751 156.785 46.2834 156.036 47.0322C155.287 47.7809 154.678 48.6702 154.21 49.6996C153.789 50.776 153.555 51.8992 153.555 53.116Z" fill="white"/>
<path d="M186.422 74.7823H183.239C183.706 73.7994 184.128 72.8635 184.549 72.0212C184.924 71.1788 185.298 70.2896 185.673 69.4005C186.048 68.5113 186.422 67.5754 186.844 66.6394C187.264 65.7034 187.733 64.5803 188.294 63.3635C186.609 59.994 184.971 56.4842 183.331 52.7872C181.693 49.137 180.054 45.5803 178.369 42.1641H181.599C182.723 44.3635 183.659 46.3758 184.455 48.1074C185.251 49.8389 186.001 51.4768 186.656 52.9276C187.311 54.3783 187.874 55.7354 188.388 56.999C188.903 58.2625 189.418 59.4793 189.933 60.6492C190.448 59.4793 190.963 58.2625 191.432 56.999C191.946 55.7354 192.509 54.3783 193.164 52.9276C193.819 51.4768 194.521 49.8857 195.364 48.1074C196.207 46.3291 197.144 44.3635 198.22 42.1641H201.451L186.422 74.7823Z" fill="white"/>
<path d="M206.742 64.0661V24.709H229.309V28.1721H210.488V43.0538H227.108V46.5636H210.488V64.0193H206.742V64.0661Z" fill="white"/>
<path d="M251.268 64.348H248.74L248.412 58.4048C247.616 60.2299 246.445 61.7274 244.901 62.8506C243.309 63.9736 241.389 64.5821 239.142 64.5821C236.989 64.5821 235.255 63.9736 233.992 62.757C232.727 61.5402 232.072 59.9491 231.979 57.9835V42.0722H235.022V56.954C235.116 58.2176 235.537 59.247 236.332 60.1363C237.128 61.0254 238.346 61.4934 239.984 61.587C241.108 61.587 242.185 61.3998 243.215 61.0254C244.245 60.651 245.088 60.0894 245.837 59.4342C246.586 58.7323 247.148 57.9368 247.616 57.0008C248.038 56.0648 248.271 54.9884 248.271 53.8654V42.0254H251.315V64.348H251.268Z" fill="white"/>
<path d="M258.805 42.0245H261.379L261.661 47.6871C262.456 45.862 263.674 44.3644 265.266 43.2413C266.857 42.1181 268.73 41.5098 270.931 41.5098C273.085 41.5098 274.817 42.1181 276.081 43.3349C277.345 44.5516 278 46.1428 278.094 48.1083V64.0196H275.051V49.1846C274.958 47.9211 274.536 46.8915 273.74 46.0023C272.944 45.1132 271.727 44.6452 270.088 44.5516C268.917 44.5516 267.84 44.7388 266.857 45.1132C265.874 45.4876 264.984 46.0492 264.236 46.7511C263.487 47.4531 262.878 48.2955 262.457 49.2315C262.036 50.1673 261.801 51.2437 261.801 52.3669V64.0663H258.758V42.0245H258.805Z" fill="white"/>
<path d="M285.443 42.0245H288.019L288.299 47.6871C289.095 45.862 290.313 44.3644 291.904 43.2413C293.497 42.1181 295.37 41.5098 297.57 41.5098C299.724 41.5098 301.456 42.1181 302.72 43.3349C303.984 44.5516 304.64 46.1428 304.734 48.1083V64.0196H301.69V49.1846C301.596 47.9211 301.175 46.8915 300.379 46.0023C299.583 45.1132 298.365 44.6452 296.727 44.5516C295.556 44.5516 294.48 44.7388 293.497 45.1132C292.514 45.4876 291.624 46.0492 290.874 46.7511C290.125 47.4531 289.517 48.2955 289.095 49.2315C288.674 50.1673 288.44 51.2437 288.44 52.3669V64.0663H285.396V42.0245H285.443Z" fill="white"/>
<path d="M330.299 61.3989C329.222 62.3348 328.004 63.1304 326.553 63.6452C325.102 64.2068 323.651 64.4876 322.106 64.4876C320.467 64.4876 318.969 64.2068 317.564 63.5983C316.159 62.99 314.896 62.1945 313.866 61.1649C312.836 60.1354 311.993 58.9186 311.384 57.5146C310.775 56.1107 310.494 54.6131 310.494 53.0688C310.494 51.4777 310.775 49.9801 311.384 48.5763C311.993 47.1723 312.836 45.9087 313.866 44.8792C314.896 43.8497 316.112 43.0073 317.518 42.3989C318.922 41.7906 320.421 41.5098 321.965 41.5098C324.399 41.5098 326.507 42.2585 328.286 43.7092C330.065 45.1599 331.376 47.0319 332.219 49.325C330.954 49.7929 329.597 50.3545 328.051 50.963C326.507 51.5713 324.962 52.1797 323.369 52.8349C321.778 53.4901 320.186 54.0984 318.595 54.7536C317.002 55.4088 315.551 56.0171 314.193 56.5319C314.849 58.0295 315.878 59.2461 317.236 60.1821C318.595 61.1181 320.186 61.5393 321.965 61.5393C323.136 61.5393 324.259 61.3521 325.336 60.9309C326.413 60.5098 327.302 59.9949 328.051 59.293L330.299 61.3989ZM328.426 48.5294C327.818 47.2659 326.928 46.2831 325.758 45.5812C324.634 44.8792 323.369 44.5049 321.965 44.5049C320.794 44.5049 319.671 44.7388 318.641 45.2068C317.611 45.6748 316.722 46.2831 315.925 47.0319C315.176 47.7807 314.568 48.7166 314.099 49.6993C313.678 50.7289 313.444 51.8053 313.444 52.9285C313.444 53.5368 313.491 54.0516 313.631 54.4728C314.755 54.0048 315.972 53.4901 317.283 52.9752C318.548 52.4605 319.858 51.9457 321.123 51.3841C322.386 50.8694 323.697 50.3545 324.915 49.8398C326.178 49.3718 327.349 48.9038 328.426 48.5294Z" fill="white"/>
<path d="M340.317 64.0672H337.273V21.8555H340.317V64.0672Z" fill="white"/>
<path d="M21.5879 81.8131L21.5892 81.8122L21.5995 81.8056C21.6072 81.8008 21.6164 81.7951 21.6258 81.7896L21.6567 81.7787C25.3542 80.4743 29.4987 82.4755 30.8071 86.2245C32.1093 89.9557 30.1704 94.0291 26.457 95.3544C26.4396 95.3576 26.4261 95.3606 26.4182 95.3623L26.4175 95.3625C26.3832 95.3701 26.35 95.3791 26.3244 95.3864C26.2979 95.394 26.2739 95.4014 26.2569 95.4068L26.2358 95.4135L26.2318 95.4148C26.2312 95.4151 26.2305 95.4153 26.2298 95.4155C22.5679 96.5908 18.5603 94.6721 17.2538 90.9719C15.9475 87.2726 17.8614 83.2629 21.4838 81.867L21.5388 81.8458L21.5872 81.8136L21.5872 81.8135L21.5872 81.8135L21.5875 81.8134L21.5877 81.8132L21.5878 81.8132L21.5879 81.8131L21.5879 81.8131Z" stroke="white" stroke-width="1.06763"/>
<path d="M47.4166 28.2647L47.4167 28.2646C50.9915 26.5216 55.3069 28.0036 57.0501 31.5755C58.7937 35.1482 57.3115 39.4613 53.7377 41.2039C53.7377 41.2039 53.7377 41.204 53.7376 41.204L10.8983 62.0758L10.8982 62.0759C7.32347 63.8188 3.00815 62.337 1.2649 58.7649C-0.47869 55.1922 1.00355 50.879 4.57739 49.1366L47.4166 28.2647Z" stroke="white" stroke-width="1.06763"/>
<path d="M9.31763 75.2388L8.91428 75.4357L9.31763 75.2388C7.57409 71.6663 9.05621 67.3532 12.6299 65.6106C12.63 65.6105 12.6301 65.6105 12.6301 65.6104L34.4475 54.9874L34.4477 54.9872C38.0226 53.2443 42.3379 54.7263 44.0811 58.2982C45.8247 61.8709 44.3425 66.1839 40.7689 67.9265C40.7688 67.9265 40.7687 67.9265 40.7686 67.9266L18.9512 78.5497L18.9509 78.5498C15.3762 80.2928 11.0609 78.8109 9.31763 75.2388Z" stroke="white" stroke-width="1.06763"/>
<mask id="path-14-inside-1_2269_652" fill="white">
<path fill-rule="evenodd" clip-rule="evenodd" d="M16.2832 19.889V42.8395L47.1828 27.7848C51.022 25.9129 55.6571 27.504 57.5298 31.3414C59.4026 35.1789 57.8108 39.8119 53.9716 41.6838L16.2832 60.0461V63.238L34.2138 54.5074C38.053 52.6356 42.6881 54.2267 44.5609 58.0641C46.4336 61.9016 44.8418 66.5346 41.0026 68.4064L19.1849 79.0296C18.2478 79.4865 17.2633 79.7371 16.2832 79.7991V87.9333C16.2832 88.1522 16.2918 88.3682 16.3086 88.5811C16.3113 85.4574 18.2376 82.5458 21.2918 81.3689C21.2918 81.3689 21.4323 81.2753 21.4791 81.2753C25.4587 79.8714 29.9065 82.0241 31.3111 86.0487C32.3118 88.916 31.5301 91.9734 29.5418 94.0023L96.8121 60.8373C102.664 57.9826 102.711 49.6993 96.9059 46.7511L27.7071 12.8693C22.4633 10.2019 16.2832 13.9925 16.2832 19.889Z"/>
</mask>
<path fill-rule="evenodd" clip-rule="evenodd" d="M16.2832 19.889V42.8395L47.1828 27.7848C51.022 25.9129 55.6571 27.504 57.5298 31.3414C59.4026 35.1789 57.8108 39.8119 53.9716 41.6838L16.2832 60.0461V63.238L34.2138 54.5074C38.053 52.6356 42.6881 54.2267 44.5609 58.0641C46.4336 61.9016 44.8418 66.5346 41.0026 68.4064L19.1849 79.0296C18.2478 79.4865 17.2633 79.7371 16.2832 79.7991V87.9333C16.2832 88.1522 16.2918 88.3682 16.3086 88.5811C16.3113 85.4574 18.2376 82.5458 21.2918 81.3689C21.2918 81.3689 21.4323 81.2753 21.4791 81.2753C25.4587 79.8714 29.9065 82.0241 31.3111 86.0487C32.3118 88.916 31.5301 91.9734 29.5418 94.0023L96.8121 60.8373C102.664 57.9826 102.711 49.6993 96.9059 46.7511L27.7071 12.8693C22.4633 10.2019 16.2832 13.9925 16.2832 19.889Z" fill="white"/>
<path d="M16.2832 42.8395H15.2156V44.5473L16.7508 43.7993L16.2832 42.8395ZM47.1828 27.7848L47.6504 28.7446L47.6507 28.7445L47.1828 27.7848ZM57.5298 31.3414L58.4893 30.8731L58.4893 30.8731L57.5298 31.3414ZM53.9716 41.6838L54.4392 42.6436L54.4395 42.6435L53.9716 41.6838ZM16.2832 60.0461L15.8156 59.0863L15.2156 59.3786V60.0461H16.2832ZM16.2832 63.238H15.2156V64.9453L16.7506 64.1979L16.2832 63.238ZM34.2138 54.5074L34.6812 55.4673L34.6817 55.4671L34.2138 54.5074ZM44.5609 58.0641L45.5203 57.5958L45.5203 57.5958L44.5609 58.0641ZM41.0026 68.4064L41.47 69.3663L41.4705 69.3661L41.0026 68.4064ZM19.1849 79.0296L18.7175 78.0697L18.7169 78.07L19.1849 79.0296ZM16.2832 79.7991L16.2158 78.7336L15.2156 78.7968V79.7991H16.2832ZM16.3086 88.5811L15.2443 88.6652L17.3762 88.5821L16.3086 88.5811ZM21.2918 81.3689L21.6757 82.3651L21.7858 82.3227L21.884 82.2573L21.2918 81.3689ZM21.4791 81.2753V82.3429H21.6619L21.8343 82.2821L21.4791 81.2753ZM31.3111 86.0487L32.3191 85.6969L32.3191 85.6969L31.3111 86.0487ZM29.5418 94.0023L28.7793 93.255L30.0139 94.9599L29.5418 94.0023ZM96.8121 60.8373L96.344 59.8777L96.34 59.8797L96.8121 60.8373ZM96.9059 46.7511L97.3893 45.7992L97.3824 45.7956L97.3754 45.7922L96.9059 46.7511ZM27.7071 12.8693L27.223 13.8209L27.2303 13.8246L27.2376 13.8282L27.7071 12.8693ZM17.3508 42.8395V19.889H15.2156V42.8395H17.3508ZM46.7152 26.825L15.8156 41.8797L16.7508 43.7993L47.6504 28.7446L46.7152 26.825ZM58.4893 30.8731C56.3575 26.5049 51.0828 24.6954 46.7149 26.8252L47.6507 28.7445C50.9611 27.1303 54.9567 28.5031 56.5704 31.8097L58.4893 30.8731ZM54.4395 42.6435C58.8094 40.5127 60.6205 35.2401 58.4893 30.8731L56.5704 31.8096C58.1848 35.1177 56.8122 39.111 53.5036 40.7242L54.4395 42.6435ZM16.7508 61.0058L54.4392 42.6436L53.5039 40.724L15.8156 59.0863L16.7508 61.0058ZM17.3508 63.238V60.0461H15.2156V63.238H17.3508ZM16.7506 64.1979L34.6812 55.4673L33.7464 53.5475L15.8158 62.2781L16.7506 64.1979ZM34.6817 55.4671C37.9921 53.853 41.9877 55.2258 43.6014 58.5323L45.5203 57.5958C43.3885 53.2276 38.1139 51.4181 33.7459 53.5478L34.6817 55.4671ZM43.6014 58.5323C45.2158 61.8404 43.8432 65.8337 40.5347 67.4468L41.4705 69.3661C45.8404 67.2355 47.6515 61.9628 45.5203 57.5958L43.6014 58.5323ZM40.5352 67.4465L18.7175 78.0697L19.6522 79.9895L41.47 69.3663L40.5352 67.4465ZM18.7169 78.07C17.9074 78.4647 17.0593 78.6802 16.2158 78.7336L16.3506 80.8646C17.4674 80.794 18.5882 80.5083 19.6528 79.9892L18.7169 78.07ZM17.3508 87.9333V79.7991H15.2156V87.9333H17.3508ZM17.3729 88.4971C17.3583 88.3123 17.3508 88.1243 17.3508 87.9333H15.2156C15.2156 88.1802 15.2253 88.4242 15.2443 88.6652L17.3729 88.4971ZM20.908 80.3727C17.4372 81.7101 15.2441 85.0206 15.241 88.5802L17.3762 88.5821C17.3786 85.8942 19.0381 83.3815 21.6757 82.3651L20.908 80.3727ZM21.4791 80.2077C21.2157 80.2077 21.0094 80.3086 20.9967 80.3142C20.9301 80.3438 20.8731 80.3752 20.8384 80.395C20.8001 80.4169 20.767 80.4374 20.7445 80.4515C20.7328 80.4589 20.723 80.4653 20.7155 80.4701C20.7117 80.4726 20.7085 80.4747 20.7058 80.4765C20.7045 80.4773 20.7033 80.4781 20.7023 80.4788C20.7018 80.4791 20.7013 80.4794 20.7009 80.4797C20.7007 80.4799 20.7005 80.48 20.7003 80.4801C20.7002 80.4802 20.7001 80.4803 20.7 80.4803C20.6999 80.4804 20.6999 80.4804 20.6998 80.4804C20.6998 80.4805 20.6997 80.4805 21.2918 81.3689C21.884 82.2573 21.8839 82.2573 21.8839 82.2574C21.8838 82.2574 21.8838 82.2574 21.8837 82.2574C21.8836 82.2575 21.8836 82.2576 21.8835 82.2576C21.8833 82.2577 21.8832 82.2578 21.883 82.2579C21.8827 82.2581 21.8824 82.2583 21.8822 82.2585C21.8817 82.2588 21.8813 82.259 21.881 82.2592C21.8805 82.2596 21.8803 82.2597 21.8805 82.2596C21.8808 82.2594 21.8823 82.2584 21.8845 82.257C21.8898 82.2536 21.8948 82.2507 21.8975 82.2492C21.9036 82.2456 21.8905 82.2536 21.8635 82.2657C21.85 82.2716 21.8173 82.2857 21.7713 82.2998C21.7384 82.3099 21.6283 82.3429 21.4791 82.3429V80.2077ZM32.3191 85.6969C30.7222 81.1212 25.6679 78.6654 21.1239 80.2685L21.8343 82.2821C25.2496 81.0773 29.0908 82.9269 30.3031 86.4005L32.3191 85.6969ZM30.3043 94.7496C32.5674 92.4403 33.4579 88.9599 32.3191 85.6969L30.3031 86.4004C31.1657 88.8722 30.4928 91.5065 28.7793 93.255L30.3043 94.7496ZM96.34 59.8797L29.0697 93.0447L30.0139 94.9599L97.2842 61.7948L96.34 59.8797ZM96.4224 47.703C101.446 50.2546 101.398 57.412 96.344 59.8777L97.2802 61.7968C103.929 58.5532 103.975 49.1441 97.3893 45.7992L96.4224 47.703ZM27.2376 13.8282L96.4364 47.7099L97.3754 45.7922L28.1766 11.9105L27.2376 13.8282ZM17.3508 19.889C17.3508 14.7878 22.691 11.5155 27.223 13.8209L28.1911 11.9178C22.2356 8.88821 15.2156 13.1972 15.2156 19.889H17.3508Z" fill="white" mask="url(#path-14-inside-1_2269_652)"/>
<path d="M172.86 11.4551C172.69 11.4551 172.538 11.4409 172.404 11.4125C172.271 11.3869 172.178 11.3613 172.127 11.3358L172.383 10.4494C172.627 10.5119 172.843 10.5346 173.031 10.5176C173.218 10.5005 173.384 10.4167 173.529 10.2662C173.677 10.1184 173.812 9.87837 173.934 9.54599L174.122 9.03462L171.701 2.45508H172.792L174.599 7.67099H174.667L176.474 2.45508H177.565L174.786 9.95508C174.661 10.2931 174.507 10.573 174.322 10.7946C174.137 11.019 173.923 11.1852 173.678 11.2931C173.437 11.4011 173.164 11.4551 172.86 11.4551Z" fill="white"/>
<path d="M165.131 9.00071V0.273438H166.137V3.49503H166.222C166.296 3.38139 166.398 3.23651 166.529 3.06037C166.662 2.88139 166.852 2.7223 167.1 2.5831C167.35 2.44105 167.688 2.37003 168.114 2.37003C168.665 2.37003 169.151 2.50781 169.571 2.78338C169.992 3.05895 170.32 3.44957 170.556 3.95526C170.791 4.46094 170.909 5.05753 170.909 5.74503C170.909 6.43821 170.791 7.03906 170.556 7.54759C170.32 8.05327 169.993 8.44531 169.575 8.72372C169.158 8.99929 168.676 9.13707 168.131 9.13707C167.71 9.13707 167.374 9.06747 167.121 8.92827C166.868 8.78622 166.673 8.62571 166.537 8.44673C166.401 8.26492 166.296 8.11435 166.222 7.99503H166.102V9.00071H165.131ZM166.119 5.72798C166.119 6.2223 166.192 6.65838 166.337 7.03622C166.482 7.41122 166.693 7.70526 166.972 7.91832C167.25 8.12855 167.591 8.23367 167.994 8.23367C168.415 8.23367 168.766 8.12287 169.047 7.90128C169.331 7.67685 169.544 7.37571 169.686 6.99787C169.831 6.61719 169.904 6.19389 169.904 5.72798C169.904 5.26776 169.833 4.85298 169.691 4.48366C169.551 4.11151 169.34 3.81747 169.056 3.60156C168.774 3.38281 168.421 3.27344 167.994 3.27344C167.585 3.27344 167.242 3.37713 166.963 3.58452C166.685 3.78906 166.475 4.07599 166.333 4.44531C166.191 4.81179 166.119 5.23935 166.119 5.72798Z" fill="white"/>
<path d="M156.638 9.13707C156.092 9.13707 155.611 8.99929 155.193 8.72372C154.776 8.44531 154.449 8.05327 154.213 7.54759C153.977 7.03906 153.859 6.43821 153.859 5.74503C153.859 5.05753 153.977 4.46094 154.213 3.95526C154.449 3.44957 154.777 3.05895 155.197 2.78338C155.618 2.50781 156.104 2.37003 156.655 2.37003C157.081 2.37003 157.418 2.44105 157.665 2.5831C157.915 2.7223 158.105 2.88139 158.236 3.06037C158.369 3.23651 158.473 3.38139 158.547 3.49503H158.632V0.273438H159.638V9.00071H158.666V7.99503H158.547C158.473 8.11435 158.368 8.26492 158.232 8.44673C158.095 8.62571 157.901 8.78622 157.648 8.92827C157.395 9.06747 157.058 9.13707 156.638 9.13707ZM156.774 8.23367C157.178 8.23367 157.518 8.12855 157.797 7.91832C158.075 7.70526 158.287 7.41122 158.432 7.03622C158.577 6.65838 158.649 6.2223 158.649 5.72798C158.649 5.23935 158.578 4.81179 158.436 4.44531C158.294 4.07599 158.084 3.78906 157.805 3.58452C157.527 3.37713 157.183 3.27344 156.774 3.27344C156.348 3.27344 155.993 3.38281 155.709 3.60156C155.428 3.81747 155.216 4.11151 155.074 4.48366C154.935 4.85298 154.865 5.26776 154.865 5.72798C154.865 6.19389 154.936 6.61719 155.078 6.99787C155.223 7.37571 155.436 7.67685 155.717 7.90128C156.001 8.12287 156.354 8.23367 156.774 8.23367Z" fill="white"/>
<path d="M149.926 9.13619C149.295 9.13619 148.751 8.99698 148.294 8.71857C147.839 8.43732 147.489 8.04528 147.241 7.54244C146.997 7.03675 146.875 6.44869 146.875 5.77823C146.875 5.10778 146.997 4.51687 147.241 4.0055C147.489 3.4913 147.832 3.09073 148.273 2.8038C148.716 2.51403 149.233 2.36914 149.824 2.36914C150.165 2.36914 150.501 2.42596 150.834 2.53959C151.166 2.65323 151.469 2.83789 151.741 3.09357C152.014 3.34641 152.232 3.68164 152.393 4.09925C152.555 4.51687 152.636 5.03107 152.636 5.64187V6.068H147.591V5.19869H151.614C151.614 4.82937 151.54 4.49982 151.392 4.21005C151.247 3.92028 151.04 3.69158 150.77 3.52397C150.503 3.35636 150.188 3.27255 149.824 3.27255C149.423 3.27255 149.077 3.37198 148.784 3.57085C148.494 3.76687 148.271 4.02255 148.115 4.33789C147.959 4.65323 147.881 4.9913 147.881 5.3521V5.93164C147.881 6.42596 147.966 6.84499 148.136 7.18874C148.31 7.52965 148.55 7.7896 148.857 7.96857C149.163 8.14471 149.52 8.23278 149.926 8.23278C150.19 8.23278 150.429 8.19585 150.642 8.12198C150.858 8.04528 151.044 7.93164 151.2 7.78107C151.357 7.62766 151.477 7.43732 151.562 7.21005L152.534 7.48278C152.432 7.81232 152.26 8.1021 152.018 8.3521C151.777 8.59925 151.479 8.79244 151.124 8.93164C150.768 9.068 150.369 9.13619 149.926 9.13619Z" fill="white"/>
<path d="M142.916 8.99929V2.45384H143.888V3.44247H143.956C144.075 3.11861 144.291 2.85582 144.604 2.65412C144.916 2.45241 145.268 2.35156 145.66 2.35156C145.734 2.35156 145.827 2.35298 145.937 2.35582C146.048 2.35867 146.132 2.36293 146.189 2.36861V3.39134C146.155 3.38281 146.077 3.37003 145.954 3.35298C145.835 3.3331 145.709 3.32315 145.575 3.32315C145.257 3.32315 144.973 3.38992 144.723 3.52344C144.476 3.65412 144.28 3.83594 144.135 4.06889C143.993 4.29901 143.922 4.56179 143.922 4.85724V8.99929H142.916Z" fill="white"/>
<path d="M138.676 9.13619C138.045 9.13619 137.501 8.99698 137.044 8.71857C136.589 8.43732 136.239 8.04528 135.991 7.54244C135.747 7.03675 135.625 6.44869 135.625 5.77823C135.625 5.10778 135.747 4.51687 135.991 4.0055C136.239 3.4913 136.582 3.09073 137.023 2.8038C137.466 2.51403 137.983 2.36914 138.574 2.36914C138.915 2.36914 139.251 2.42596 139.584 2.53959C139.916 2.65323 140.219 2.83789 140.491 3.09357C140.764 3.34641 140.982 3.68164 141.143 4.09925C141.305 4.51687 141.386 5.03107 141.386 5.64187V6.068H136.341V5.19869H140.364C140.364 4.82937 140.29 4.49982 140.142 4.21005C139.997 3.92028 139.79 3.69158 139.52 3.52397C139.253 3.35636 138.938 3.27255 138.574 3.27255C138.173 3.27255 137.827 3.37198 137.534 3.57085C137.244 3.76687 137.021 4.02255 136.865 4.33789C136.709 4.65323 136.631 4.9913 136.631 5.3521V5.93164C136.631 6.42596 136.716 6.84499 136.886 7.18874C137.06 7.52965 137.3 7.7896 137.607 7.96857C137.913 8.14471 138.27 8.23278 138.676 8.23278C138.94 8.23278 139.179 8.19585 139.392 8.12198C139.608 8.04528 139.794 7.93164 139.95 7.78107C140.107 7.62766 140.227 7.43732 140.312 7.21005L141.284 7.48278C141.182 7.81232 141.01 8.1021 140.768 8.3521C140.527 8.59925 140.229 8.79244 139.874 8.93164C139.518 9.068 139.119 9.13619 138.676 9.13619Z" fill="white"/>
<path d="M127.887 9.00053L125.893 2.45508H126.949L128.364 7.46644H128.432L129.83 2.45508H130.904L132.285 7.4494H132.353L133.768 2.45508H134.824L132.83 9.00053H131.841L130.41 3.97212H130.307L128.876 9.00053H127.887Z" fill="white"/>
<path d="M122.126 9.13619C121.535 9.13619 121.017 8.99556 120.571 8.71431C120.127 8.43306 119.781 8.0396 119.531 7.53391C119.284 7.02823 119.16 6.43732 119.16 5.76119C119.16 5.07937 119.284 4.4842 119.531 3.97567C119.781 3.46715 120.127 3.07227 120.571 2.79102C121.017 2.50977 121.535 2.36914 122.126 2.36914C122.717 2.36914 123.234 2.50977 123.677 2.79102C124.123 3.07227 124.47 3.46715 124.717 3.97567C124.967 4.4842 125.092 5.07937 125.092 5.76119C125.092 6.43732 124.967 7.02823 124.717 7.53391C124.47 8.0396 124.123 8.43306 123.677 8.71431C123.234 8.99556 122.717 9.13619 122.126 9.13619ZM122.126 8.23278C122.575 8.23278 122.944 8.11772 123.234 7.88761C123.524 7.65749 123.738 7.35494 123.877 6.97994C124.017 6.60494 124.086 6.19869 124.086 5.76119C124.086 5.32369 124.017 4.91602 123.877 4.53817C123.738 4.16033 123.524 3.85494 123.234 3.62198C122.944 3.38903 122.575 3.27255 122.126 3.27255C121.677 3.27255 121.308 3.38903 121.018 3.62198C120.728 3.85494 120.514 4.16033 120.375 4.53817C120.235 4.91602 120.166 5.32369 120.166 5.76119C120.166 6.19869 120.235 6.60494 120.375 6.97994C120.514 7.35494 120.728 7.65749 121.018 7.88761C121.308 8.11772 121.677 8.23278 122.126 8.23278Z" fill="white"/>
<path d="M112.057 9.00071V0.273438H115.006C115.69 0.273438 116.25 0.397017 116.684 0.644176C117.122 0.888494 117.446 1.21946 117.656 1.63707C117.866 2.05469 117.971 2.5206 117.971 3.0348C117.971 3.54901 117.866 4.01634 117.656 4.43679C117.449 4.85724 117.128 5.19247 116.693 5.44247C116.258 5.68963 115.702 5.81321 115.023 5.81321H112.909V4.87571H114.988C115.457 4.87571 115.834 4.79474 116.118 4.63281C116.402 4.47088 116.608 4.25213 116.736 3.97656C116.866 3.69815 116.932 3.38423 116.932 3.0348C116.932 2.68537 116.866 2.37287 116.736 2.0973C116.608 1.82173 116.4 1.60582 116.113 1.44957C115.827 1.29048 115.446 1.21094 114.971 1.21094H113.113V9.00071H112.057Z" fill="white"/>
</svg>
