<svg width="715" height="17" viewBox="0 0 715 17" fill="none" xmlns="http://www.w3.org/2000/svg">
<path d="M0.000376023 0.423301V16.0355C-0.00244812 16.1087 0.0144078 16.1813 0.0491814 16.2458C0.083955 16.3103 0.135376 16.3642 0.198092 16.4021C0.260808 16.4399 0.33252 16.4603 0.405766 16.461C0.479011 16.4617 0.551105 16.4427 0.614542 16.4061L13.2386 8.60004C13.3002 8.56038 13.3508 8.50591 13.3859 8.44161C13.4209 8.37731 13.4393 8.30523 13.4393 8.23198C13.4393 8.15873 13.4209 8.08666 13.3859 8.02236C13.3508 7.95805 13.3002 7.90358 13.2386 7.86393L0.614542 0.0578517C0.551701 0.0201318 0.479819 0.000141408 0.406531 7.47516e-07C0.333242 -0.000139913 0.261286 0.0195731 0.198301 0.0570515C0.135315 0.0945299 0.083653 0.14837 0.0488037 0.212856C0.0139545 0.277342 -0.00277781 0.350066 0.000376023 0.423301Z" fill="#B6C8DD"/>
<path d="M712.991 3.14172H26.4553C25.7359 3.14172 25.1527 3.72503 25.1527 4.44457V10.4865C25.1527 11.2061 25.7359 11.7894 26.4553 11.7894H712.991C713.711 11.7894 714.294 11.2061 714.294 10.4865V4.44457C714.294 3.72503 713.711 3.14172 712.991 3.14172Z" fill="#B6C8DD"/>
<path d="M200.703 3.14172H26.4553C25.7359 3.14172 25.1527 3.72503 25.1527 4.44457V10.4865C25.1527 11.2061 25.7359 11.7894 26.4553 11.7894H200.703C201.423 11.7894 202.006 11.2061 202.006 10.4865V4.44457C202.006 3.72503 201.423 3.14172 200.703 3.14172Z" fill="#F2F5F9"/>
</svg>
