<svg width="21" height="22" viewBox="0 0 21 22" fill="none" xmlns="http://www.w3.org/2000/svg">
<path fill-rule="evenodd" clip-rule="evenodd" d="M21 2.35714L21 19.6429C21 20.9442 19.9922 22 18.75 22L2.25 22C1.00781 22 -9.155e-07 20.9442 -8.58617e-07 19.6429L-1.03034e-07 2.35714C-4.61506e-08 1.0558 1.00781 -8.73886e-07 2.25 -8.19589e-07L18.75 -9.83506e-08C19.9922 -4.40529e-08 21 1.0558 21 2.35714ZM3.30834 9.69165L9.25648 15.4519C9.6676 15.8501 10.3324 15.8501 10.7435 15.4477L16.6917 9.68742C17.1028 9.29352 17.1028 8.64972 16.6917 8.25159L15.6945 7.2986C15.2877 6.90047 14.6229 6.90047 14.2118 7.2986L9.99563 11.3816L5.77944 7.2986C5.3727 6.90047 4.7079 6.90047 4.29678 7.2986L3.30834 8.25582C2.89722 8.64972 2.89722 9.29352 3.30834 9.69165Z" fill="#00026A"/>
</svg>
