<svg width="18" height="20" viewBox="0 0 18 20" fill="none" xmlns="http://www.w3.org/2000/svg">
<path d="M16.125 0H2.375C1.33984 0 0.5 0.839844 0.5 1.875V18.125C0.5 19.1602 1.33984 20 2.375 20H16.125C17.1602 20 18 19.1602 18 18.125V1.875C18 0.839844 17.1602 0 16.125 0ZM9.25 18.75C8.55859 18.75 8 18.1914 8 17.5C8 16.8086 8.55859 16.25 9.25 16.25C9.94141 16.25 10.5 16.8086 10.5 17.5C10.5 18.1914 9.94141 18.75 9.25 18.75ZM16.125 14.5312C16.125 14.7891 15.9141 15 15.6562 15H2.84375C2.58594 15 2.375 14.7891 2.375 14.5312V2.34375C2.375 2.08594 2.58594 1.875 2.84375 1.875H15.6562C15.9141 1.875 16.125 2.08594 16.125 2.34375V14.5312Z" fill="#EFEFF9"/>
</svg>
